<?xml version="1.0"?>
<!-- Generated by SVGo and Plotinum VG -->
<svg width="566.93pt" height="350.38pt" viewBox="0 0 566.93 350.38"
	xmlns="http://www.w3.org/2000/svg"
	xmlns:xlink="http://www.w3.org/1999/xlink">
<g transform="scale(1, -1) translate(0, -350.38)">
<path d="M0,0L566.93,0L566.93,350.38L0,350.38Z" style="fill:#FFFFFF" />
<text x="256.16" y="-15.879" transform="scale(1, -1)"
	style="font-family:Helvetica;font-weight:normal;font-style:normal;font-size:12px">f(x) = a + b*x + c*x^2</text>
<text x="204.26" y="-3.8789" transform="scale(1, -1)"
	style="font-family:Helvetica;font-weight:normal;font-style:normal;font-size:12px">1.283410 + 0.009349*x + -0.000000*x^2</text>
<text x="53.948" y="-30.997" transform="scale(1, -1)"
	style="font-family:Helvetica;font-weight:normal;font-style:normal;font-size:10px">0</text>
<text x="191.03" y="-30.997" transform="scale(1, -1)"
	style="font-family:Helvetica;font-weight:normal;font-style:normal;font-size:10px">40000</text>
<text x="339.24" y="-30.997" transform="scale(1, -1)"
	style="font-family:Helvetica;font-weight:normal;font-style:normal;font-size:10px">80000</text>
<text x="484.66" y="-30.997" transform="scale(1, -1)"
	style="font-family:Helvetica;font-weight:normal;font-style:normal;font-size:10px">120000</text>
<path d="M56.729,40.597L56.729,48.597" style="fill:none;stroke:#000000;stroke-width:0.5" />
<path d="M204.93,40.597L204.93,48.597" style="fill:none;stroke:#000000;stroke-width:0.5" />
<path d="M353.14,40.597L353.14,48.597" style="fill:none;stroke:#000000;stroke-width:0.5" />
<path d="M501.35,40.597L501.35,48.597" style="fill:none;stroke:#000000;stroke-width:0.5" />
<path d="M93.78,44.597L93.78,48.597" style="fill:none;stroke:#000000;stroke-width:0.5" />
<path d="M130.83,44.597L130.83,48.597" style="fill:none;stroke:#000000;stroke-width:0.5" />
<path d="M167.88,44.597L167.88,48.597" style="fill:none;stroke:#000000;stroke-width:0.5" />
<path d="M241.99,44.597L241.99,48.597" style="fill:none;stroke:#000000;stroke-width:0.5" />
<path d="M279.04,44.597L279.04,48.597" style="fill:none;stroke:#000000;stroke-width:0.5" />
<path d="M316.09,44.597L316.09,48.597" style="fill:none;stroke:#000000;stroke-width:0.5" />
<path d="M390.19,44.597L390.19,48.597" style="fill:none;stroke:#000000;stroke-width:0.5" />
<path d="M427.24,44.597L427.24,48.597" style="fill:none;stroke:#000000;stroke-width:0.5" />
<path d="M464.3,44.597L464.3,48.597" style="fill:none;stroke:#000000;stroke-width:0.5" />
<path d="M538.4,44.597L538.4,48.597" style="fill:none;stroke:#000000;stroke-width:0.5" />
<path d="M56.729,48.597L566.93,48.597" style="fill:none;stroke:#000000;stroke-width:0.5" />
<g transform="rotate(90)">
<text x="187.03" y="11.52" transform="scale(1, -1)"
	style="font-family:Helvetica;font-weight:normal;font-style:normal;font-size:12px">ms/op</text>
</g>
<text x="32.083" y="-51.647" transform="scale(1, -1)"
	style="font-family:Helvetica;font-weight:normal;font-style:normal;font-size:10px">0</text>
<text x="20.96" y="-142.92" transform="scale(1, -1)"
	style="font-family:Helvetica;font-weight:normal;font-style:normal;font-size:10px">400</text>
<text x="20.96" y="-234.19" transform="scale(1, -1)"
	style="font-family:Helvetica;font-weight:normal;font-style:normal;font-size:10px">800</text>
<text x="15.398" y="-325.47" transform="scale(1, -1)"
	style="font-family:Helvetica;font-weight:normal;font-style:normal;font-size:10px">1200</text>
<path d="M40.423,56.347L48.423,56.347" style="fill:none;stroke:#000000;stroke-width:0.5" />
<path d="M40.423,147.62L48.423,147.62" style="fill:none;stroke:#000000;stroke-width:0.5" />
<path d="M40.423,238.89L48.423,238.89" style="fill:none;stroke:#000000;stroke-width:0.5" />
<path d="M40.423,330.17L48.423,330.17" style="fill:none;stroke:#000000;stroke-width:0.5" />
<path d="M44.423,79.165L48.423,79.165" style="fill:none;stroke:#000000;stroke-width:0.5" />
<path d="M44.423,101.98L48.423,101.98" style="fill:none;stroke:#000000;stroke-width:0.5" />
<path d="M44.423,124.8L48.423,124.8" style="fill:none;stroke:#000000;stroke-width:0.5" />
<path d="M44.423,170.44L48.423,170.44" style="fill:none;stroke:#000000;stroke-width:0.5" />
<path d="M44.423,193.26L48.423,193.26" style="fill:none;stroke:#000000;stroke-width:0.5" />
<path d="M44.423,216.07L48.423,216.07" style="fill:none;stroke:#000000;stroke-width:0.5" />
<path d="M44.423,261.71L48.423,261.71" style="fill:none;stroke:#000000;stroke-width:0.5" />
<path d="M44.423,284.53L48.423,284.53" style="fill:none;stroke:#000000;stroke-width:0.5" />
<path d="M44.423,307.35L48.423,307.35" style="fill:none;stroke:#000000;stroke-width:0.5" />
<path d="M48.423,56.347L48.423,350.38" style="fill:none;stroke:#000000;stroke-width:0.5" />
<path d="M54.961,54.579L58.496,58.114" style="fill:none;stroke:#0000FF;stroke-width:0.5" />
<path d="M54.961,58.114L58.496,54.579" style="fill:none;stroke:#0000FF;stroke-width:0.5" />
<path d="M54.961,54.579L58.496,58.114" style="fill:none;stroke:#0000FF;stroke-width:0.5" />
<path d="M54.961,58.114L58.496,54.579" style="fill:none;stroke:#0000FF;stroke-width:0.5" />
<path d="M54.961,54.579L58.496,58.114" style="fill:none;stroke:#0000FF;stroke-width:0.5" />
<path d="M54.961,58.114L58.496,54.579" style="fill:none;stroke:#0000FF;stroke-width:0.5" />
<path d="M54.961,54.579L58.496,58.114" style="fill:none;stroke:#0000FF;stroke-width:0.5" />
<path d="M54.961,58.114L58.496,54.579" style="fill:none;stroke:#0000FF;stroke-width:0.5" />
<path d="M54.961,54.579L58.496,58.114" style="fill:none;stroke:#0000FF;stroke-width:0.5" />
<path d="M54.961,58.114L58.496,54.579" style="fill:none;stroke:#0000FF;stroke-width:0.5" />
<path d="M54.961,54.579L58.496,58.114" style="fill:none;stroke:#0000FF;stroke-width:0.5" />
<path d="M54.961,58.114L58.496,54.579" style="fill:none;stroke:#0000FF;stroke-width:0.5" />
<path d="M54.961,54.579L58.496,58.114" style="fill:none;stroke:#0000FF;stroke-width:0.5" />
<path d="M54.961,58.114L58.496,54.579" style="fill:none;stroke:#0000FF;stroke-width:0.5" />
<path d="M54.961,54.579L58.496,58.114" style="fill:none;stroke:#0000FF;stroke-width:0.5" />
<path d="M54.961,58.114L58.496,54.579" style="fill:none;stroke:#0000FF;stroke-width:0.5" />
<path d="M54.961,54.579L58.496,58.114" style="fill:none;stroke:#0000FF;stroke-width:0.5" />
<path d="M54.961,58.114L58.496,54.579" style="fill:none;stroke:#0000FF;stroke-width:0.5" />
<path d="M54.961,54.579L58.496,58.114" style="fill:none;stroke:#0000FF;stroke-width:0.5" />
<path d="M54.961,58.114L58.496,54.579" style="fill:none;stroke:#0000FF;stroke-width:0.5" />
<path d="M54.961,54.579L58.496,58.114" style="fill:none;stroke:#0000FF;stroke-width:0.5" />
<path d="M54.961,58.114L58.496,54.579" style="fill:none;stroke:#0000FF;stroke-width:0.5" />
<path d="M54.961,54.579L58.496,58.114" style="fill:none;stroke:#0000FF;stroke-width:0.5" />
<path d="M54.961,58.114L58.496,54.579" style="fill:none;stroke:#0000FF;stroke-width:0.5" />
<path d="M54.961,54.579L58.496,58.114" style="fill:none;stroke:#0000FF;stroke-width:0.5" />
<path d="M54.961,58.114L58.496,54.579" style="fill:none;stroke:#0000FF;stroke-width:0.5" />
<path d="M54.961,54.579L58.496,58.114" style="fill:none;stroke:#0000FF;stroke-width:0.5" />
<path d="M54.961,58.114L58.496,54.579" style="fill:none;stroke:#0000FF;stroke-width:0.5" />
<path d="M54.961,54.579L58.496,58.114" style="fill:none;stroke:#0000FF;stroke-width:0.5" />
<path d="M54.961,58.114L58.496,54.579" style="fill:none;stroke:#0000FF;stroke-width:0.5" />
<path d="M54.961,54.579L58.496,58.114" style="fill:none;stroke:#0000FF;stroke-width:0.5" />
<path d="M54.961,58.114L58.496,54.579" style="fill:none;stroke:#0000FF;stroke-width:0.5" />
<path d="M54.961,54.579L58.496,58.114" style="fill:none;stroke:#0000FF;stroke-width:0.5" />
<path d="M54.961,58.114L58.496,54.579" style="fill:none;stroke:#0000FF;stroke-width:0.5" />
<path d="M54.961,54.579L58.496,58.114" style="fill:none;stroke:#0000FF;stroke-width:0.5" />
<path d="M54.961,58.114L58.496,54.579" style="fill:none;stroke:#0000FF;stroke-width:0.5" />
<path d="M54.961,54.579L58.496,58.114" style="fill:none;stroke:#0000FF;stroke-width:0.5" />
<path d="M54.961,58.114L58.496,54.579" style="fill:none;stroke:#0000FF;stroke-width:0.5" />
<path d="M54.961,54.579L58.496,58.114" style="fill:none;stroke:#0000FF;stroke-width:0.5" />
<path d="M54.961,58.114L58.496,54.579" style="fill:none;stroke:#0000FF;stroke-width:0.5" />
<path d="M54.961,54.579L58.496,58.114" style="fill:none;stroke:#0000FF;stroke-width:0.5" />
<path d="M54.961,58.114L58.496,54.579" style="fill:none;stroke:#0000FF;stroke-width:0.5" />
<path d="M54.961,54.579L58.496,58.114" style="fill:none;stroke:#0000FF;stroke-width:0.5" />
<path d="M54.961,58.114L58.496,54.579" style="fill:none;stroke:#0000FF;stroke-width:0.5" />
<path d="M54.961,54.579L58.496,58.114" style="fill:none;stroke:#0000FF;stroke-width:0.5" />
<path d="M54.961,58.114L58.496,54.579" style="fill:none;stroke:#0000FF;stroke-width:0.5" />
<path d="M54.961,54.579L58.496,58.114" style="fill:none;stroke:#0000FF;stroke-width:0.5" />
<path d="M54.961,58.114L58.496,54.579" style="fill:none;stroke:#0000FF;stroke-width:0.5" />
<path d="M54.961,54.579L58.496,58.114" style="fill:none;stroke:#0000FF;stroke-width:0.5" />
<path d="M54.961,58.114L58.496,54.579" style="fill:none;stroke:#0000FF;stroke-width:0.5" />
<path d="M54.961,54.579L58.496,58.114" style="fill:none;stroke:#0000FF;stroke-width:0.5" />
<path d="M54.961,58.114L58.496,54.579" style="fill:none;stroke:#0000FF;stroke-width:0.5" />
<path d="M54.961,54.579L58.496,58.114" style="fill:none;stroke:#0000FF;stroke-width:0.5" />
<path d="M54.961,58.114L58.496,54.579" style="fill:none;stroke:#0000FF;stroke-width:0.5" />
<path d="M54.961,54.579L58.496,58.114" style="fill:none;stroke:#0000FF;stroke-width:0.5" />
<path d="M54.961,58.114L58.496,54.579" style="fill:none;stroke:#0000FF;stroke-width:0.5" />
<path d="M54.961,54.579L58.496,58.114" style="fill:none;stroke:#0000FF;stroke-width:0.5" />
<path d="M54.961,58.114L58.496,54.579" style="fill:none;stroke:#0000FF;stroke-width:0.5" />
<path d="M54.961,54.579L58.496,58.114" style="fill:none;stroke:#0000FF;stroke-width:0.5" />
<path d="M54.961,58.114L58.496,54.579" style="fill:none;stroke:#0000FF;stroke-width:0.5" />
<path d="M54.961,54.579L58.496,58.114" style="fill:none;stroke:#0000FF;stroke-width:0.5" />
<path d="M54.961,58.114L58.496,54.579" style="fill:none;stroke:#0000FF;stroke-width:0.5" />
<path d="M54.961,54.579L58.496,58.114" style="fill:none;stroke:#0000FF;stroke-width:0.5" />
<path d="M54.961,58.114L58.496,54.579" style="fill:none;stroke:#0000FF;stroke-width:0.5" />
<path d="M54.961,54.579L58.496,58.114" style="fill:none;stroke:#0000FF;stroke-width:0.5" />
<path d="M54.961,58.114L58.496,54.579" style="fill:none;stroke:#0000FF;stroke-width:0.5" />
<path d="M54.961,54.579L58.496,58.114" style="fill:none;stroke:#0000FF;stroke-width:0.5" />
<path d="M54.961,58.114L58.496,54.579" style="fill:none;stroke:#0000FF;stroke-width:0.5" />
<path d="M54.961,54.579L58.496,58.114" style="fill:none;stroke:#0000FF;stroke-width:0.5" />
<path d="M54.961,58.114L58.496,54.579" style="fill:none;stroke:#0000FF;stroke-width:0.5" />
<path d="M54.961,54.579L58.496,58.114" style="fill:none;stroke:#0000FF;stroke-width:0.5" />
<path d="M54.961,58.114L58.496,54.579" style="fill:none;stroke:#0000FF;stroke-width:0.5" />
<path d="M54.961,54.579L58.496,58.114" style="fill:none;stroke:#0000FF;stroke-width:0.5" />
<path d="M54.961,58.114L58.496,54.579" style="fill:none;stroke:#0000FF;stroke-width:0.5" />
<path d="M54.961,54.579L58.496,58.114" style="fill:none;stroke:#0000FF;stroke-width:0.5" />
<path d="M54.961,58.114L58.496,54.579" style="fill:none;stroke:#0000FF;stroke-width:0.5" />
<path d="M54.961,54.579L58.496,58.114" style="fill:none;stroke:#0000FF;stroke-width:0.5" />
<path d="M54.961,58.114L58.496,54.579" style="fill:none;stroke:#0000FF;stroke-width:0.5" />
<path d="M54.961,54.579L58.496,58.114" style="fill:none;stroke:#0000FF;stroke-width:0.5" />
<path d="M54.961,58.114L58.496,54.579" style="fill:none;stroke:#0000FF;stroke-width:0.5" />
<path d="M54.961,54.579L58.496,58.114" style="fill:none;stroke:#0000FF;stroke-width:0.5" />
<path d="M54.961,58.114L58.496,54.579" style="fill:none;stroke:#0000FF;stroke-width:0.5" />
<path d="M54.961,54.579L58.496,58.114" style="fill:none;stroke:#0000FF;stroke-width:0.5" />
<path d="M54.961,58.114L58.496,54.579" style="fill:none;stroke:#0000FF;stroke-width:0.5" />
<path d="M54.961,54.579L58.496,58.114" style="fill:none;stroke:#0000FF;stroke-width:0.5" />
<path d="M54.961,58.114L58.496,54.579" style="fill:none;stroke:#0000FF;stroke-width:0.5" />
<path d="M54.961,54.579L58.496,58.114" style="fill:none;stroke:#0000FF;stroke-width:0.5" />
<path d="M54.961,58.114L58.496,54.579" style="fill:none;stroke:#0000FF;stroke-width:0.5" />
<path d="M54.961,54.579L58.496,58.114" style="fill:none;stroke:#0000FF;stroke-width:0.5" />
<path d="M54.961,58.114L58.496,54.579" style="fill:none;stroke:#0000FF;stroke-width:0.5" />
<path d="M54.961,54.579L58.496,58.114" style="fill:none;stroke:#0000FF;stroke-width:0.5" />
<path d="M54.961,58.114L58.496,54.579" style="fill:none;stroke:#0000FF;stroke-width:0.5" />
<path d="M54.961,54.579L58.496,58.114" style="fill:none;stroke:#0000FF;stroke-width:0.5" />
<path d="M54.961,58.114L58.496,54.579" style="fill:none;stroke:#0000FF;stroke-width:0.5" />
<path d="M54.961,54.579L58.496,58.114" style="fill:none;stroke:#0000FF;stroke-width:0.5" />
<path d="M54.961,58.114L58.496,54.579" style="fill:none;stroke:#0000FF;stroke-width:0.5" />
<path d="M54.961,54.579L58.496,58.114" style="fill:none;stroke:#0000FF;stroke-width:0.5" />
<path d="M54.961,58.114L58.496,54.579" style="fill:none;stroke:#0000FF;stroke-width:0.5" />
<path d="M54.961,54.579L58.496,58.114" style="fill:none;stroke:#0000FF;stroke-width:0.5" />
<path d="M54.961,58.114L58.496,54.579" style="fill:none;stroke:#0000FF;stroke-width:0.5" />
<path d="M54.961,54.579L58.496,58.114" style="fill:none;stroke:#0000FF;stroke-width:0.5" />
<path d="M54.961,58.114L58.496,54.579" style="fill:none;stroke:#0000FF;stroke-width:0.5" />
<path d="M54.961,54.579L58.496,58.114" style="fill:none;stroke:#0000FF;stroke-width:0.5" />
<path d="M54.961,58.114L58.496,54.579" style="fill:none;stroke:#0000FF;stroke-width:0.5" />
<path d="M54.961,54.579L58.496,58.114" style="fill:none;stroke:#0000FF;stroke-width:0.5" />
<path d="M54.961,58.114L58.496,54.579" style="fill:none;stroke:#0000FF;stroke-width:0.5" />
<path d="M54.961,54.579L58.496,58.114" style="fill:none;stroke:#0000FF;stroke-width:0.5" />
<path d="M54.961,58.114L58.496,54.579" style="fill:none;stroke:#0000FF;stroke-width:0.5" />
<path d="M54.961,54.579L58.496,58.114" style="fill:none;stroke:#0000FF;stroke-width:0.5" />
<path d="M54.961,58.114L58.496,54.579" style="fill:none;stroke:#0000FF;stroke-width:0.5" />
<path d="M54.961,54.579L58.496,58.114" style="fill:none;stroke:#0000FF;stroke-width:0.5" />
<path d="M54.961,58.114L58.496,54.579" style="fill:none;stroke:#0000FF;stroke-width:0.5" />
<path d="M54.961,54.579L58.496,58.114" style="fill:none;stroke:#0000FF;stroke-width:0.5" />
<path d="M54.961,58.114L58.496,54.579" style="fill:none;stroke:#0000FF;stroke-width:0.5" />
<path d="M54.961,54.579L58.496,58.114" style="fill:none;stroke:#0000FF;stroke-width:0.5" />
<path d="M54.961,58.114L58.496,54.579" style="fill:none;stroke:#0000FF;stroke-width:0.5" />
<path d="M54.961,54.579L58.496,58.114" style="fill:none;stroke:#0000FF;stroke-width:0.5" />
<path d="M54.961,58.114L58.496,54.579" style="fill:none;stroke:#0000FF;stroke-width:0.5" />
<path d="M54.961,54.579L58.496,58.114" style="fill:none;stroke:#0000FF;stroke-width:0.5" />
<path d="M54.961,58.114L58.496,54.579" style="fill:none;stroke:#0000FF;stroke-width:0.5" />
<path d="M54.961,54.579L58.496,58.114" style="fill:none;stroke:#0000FF;stroke-width:0.5" />
<path d="M54.961,58.114L58.496,54.579" style="fill:none;stroke:#0000FF;stroke-width:0.5" />
<path d="M54.961,54.579L58.496,58.114" style="fill:none;stroke:#0000FF;stroke-width:0.5" />
<path d="M54.961,58.114L58.496,54.579" style="fill:none;stroke:#0000FF;stroke-width:0.5" />
<path d="M54.961,54.579L58.496,58.114" style="fill:none;stroke:#0000FF;stroke-width:0.5" />
<path d="M54.961,58.114L58.496,54.579" style="fill:none;stroke:#0000FF;stroke-width:0.5" />
<path d="M54.961,54.579L58.496,58.114" style="fill:none;stroke:#0000FF;stroke-width:0.5" />
<path d="M54.961,58.114L58.496,54.579" style="fill:none;stroke:#0000FF;stroke-width:0.5" />
<path d="M54.961,54.579L58.496,58.114" style="fill:none;stroke:#0000FF;stroke-width:0.5" />
<path d="M54.961,58.114L58.496,54.579" style="fill:none;stroke:#0000FF;stroke-width:0.5" />
<path d="M54.961,54.579L58.496,58.114" style="fill:none;stroke:#0000FF;stroke-width:0.5" />
<path d="M54.961,58.114L58.496,54.579" style="fill:none;stroke:#0000FF;stroke-width:0.5" />
<path d="M54.961,54.579L58.496,58.114" style="fill:none;stroke:#0000FF;stroke-width:0.5" />
<path d="M54.961,58.114L58.496,54.579" style="fill:none;stroke:#0000FF;stroke-width:0.5" />
<path d="M54.961,54.579L58.496,58.114" style="fill:none;stroke:#0000FF;stroke-width:0.5" />
<path d="M54.961,58.114L58.496,54.579" style="fill:none;stroke:#0000FF;stroke-width:0.5" />
<path d="M54.961,54.579L58.496,58.114" style="fill:none;stroke:#0000FF;stroke-width:0.5" />
<path d="M54.961,58.114L58.496,54.579" style="fill:none;stroke:#0000FF;stroke-width:0.5" />
<path d="M54.961,54.579L58.496,58.114" style="fill:none;stroke:#0000FF;stroke-width:0.5" />
<path d="M54.961,58.114L58.496,54.579" style="fill:none;stroke:#0000FF;stroke-width:0.5" />
<path d="M54.961,54.579L58.496,58.114" style="fill:none;stroke:#0000FF;stroke-width:0.5" />
<path d="M54.961,58.114L58.496,54.579" style="fill:none;stroke:#0000FF;stroke-width:0.5" />
<path d="M54.961,54.579L58.496,58.114" style="fill:none;stroke:#0000FF;stroke-width:0.5" />
<path d="M54.961,58.114L58.496,54.579" style="fill:none;stroke:#0000FF;stroke-width:0.5" />
<path d="M54.961,54.579L58.496,58.114" style="fill:none;stroke:#0000FF;stroke-width:0.5" />
<path d="M54.961,58.114L58.496,54.579" style="fill:none;stroke:#0000FF;stroke-width:0.5" />
<path d="M54.961,54.579L58.496,58.114" style="fill:none;stroke:#0000FF;stroke-width:0.5" />
<path d="M54.961,58.114L58.496,54.579" style="fill:none;stroke:#0000FF;stroke-width:0.5" />
<path d="M54.961,54.579L58.496,58.114" style="fill:none;stroke:#0000FF;stroke-width:0.5" />
<path d="M54.961,58.114L58.496,54.579" style="fill:none;stroke:#0000FF;stroke-width:0.5" />
<path d="M54.961,54.579L58.496,58.114" style="fill:none;stroke:#0000FF;stroke-width:0.5" />
<path d="M54.961,58.114L58.496,54.579" style="fill:none;stroke:#0000FF;stroke-width:0.5" />
<path d="M54.961,54.579L58.496,58.114" style="fill:none;stroke:#0000FF;stroke-width:0.5" />
<path d="M54.961,58.114L58.496,54.579" style="fill:none;stroke:#0000FF;stroke-width:0.5" />
<path d="M54.961,54.579L58.496,58.114" style="fill:none;stroke:#0000FF;stroke-width:0.5" />
<path d="M54.961,58.114L58.496,54.579" style="fill:none;stroke:#0000FF;stroke-width:0.5" />
<path d="M54.961,54.579L58.496,58.114" style="fill:none;stroke:#0000FF;stroke-width:0.5" />
<path d="M54.961,58.114L58.496,54.579" style="fill:none;stroke:#0000FF;stroke-width:0.5" />
<path d="M54.961,54.579L58.496,58.114" style="fill:none;stroke:#0000FF;stroke-width:0.5" />
<path d="M54.961,58.114L58.496,54.579" style="fill:none;stroke:#0000FF;stroke-width:0.5" />
<path d="M54.961,54.579L58.496,58.114" style="fill:none;stroke:#0000FF;stroke-width:0.5" />
<path d="M54.961,58.114L58.496,54.579" style="fill:none;stroke:#0000FF;stroke-width:0.5" />
<path d="M54.961,54.579L58.496,58.114" style="fill:none;stroke:#0000FF;stroke-width:0.5" />
<path d="M54.961,58.114L58.496,54.579" style="fill:none;stroke:#0000FF;stroke-width:0.5" />
<path d="M54.961,54.579L58.496,58.114" style="fill:none;stroke:#0000FF;stroke-width:0.5" />
<path d="M54.961,58.114L58.496,54.579" style="fill:none;stroke:#0000FF;stroke-width:0.5" />
<path d="M54.961,54.579L58.496,58.114" style="fill:none;stroke:#0000FF;stroke-width:0.5" />
<path d="M54.961,58.114L58.496,54.579" style="fill:none;stroke:#0000FF;stroke-width:0.5" />
<path d="M54.961,54.579L58.496,58.114" style="fill:none;stroke:#0000FF;stroke-width:0.5" />
<path d="M54.961,58.114L58.496,54.579" style="fill:none;stroke:#0000FF;stroke-width:0.5" />
<path d="M54.961,54.579L58.496,58.114" style="fill:none;stroke:#0000FF;stroke-width:0.5" />
<path d="M54.961,58.114L58.496,54.579" style="fill:none;stroke:#0000FF;stroke-width:0.5" />
<path d="M54.961,54.579L58.496,58.114" style="fill:none;stroke:#0000FF;stroke-width:0.5" />
<path d="M54.961,58.114L58.496,54.579" style="fill:none;stroke:#0000FF;stroke-width:0.5" />
<path d="M54.961,54.579L58.496,58.114" style="fill:none;stroke:#0000FF;stroke-width:0.5" />
<path d="M54.961,58.114L58.496,54.579" style="fill:none;stroke:#0000FF;stroke-width:0.5" />
<path d="M54.961,54.579L58.496,58.114" style="fill:none;stroke:#0000FF;stroke-width:0.5" />
<path d="M54.961,58.114L58.496,54.579" style="fill:none;stroke:#0000FF;stroke-width:0.5" />
<path d="M54.961,54.579L58.496,58.114" style="fill:none;stroke:#0000FF;stroke-width:0.5" />
<path d="M54.961,58.114L58.496,54.579" style="fill:none;stroke:#0000FF;stroke-width:0.5" />
<path d="M54.961,54.579L58.496,58.114" style="fill:none;stroke:#0000FF;stroke-width:0.5" />
<path d="M54.961,58.114L58.496,54.579" style="fill:none;stroke:#0000FF;stroke-width:0.5" />
<path d="M54.961,54.579L58.496,58.114" style="fill:none;stroke:#0000FF;stroke-width:0.5" />
<path d="M54.961,58.114L58.496,54.579" style="fill:none;stroke:#0000FF;stroke-width:0.5" />
<path d="M54.961,54.579L58.496,58.114" style="fill:none;stroke:#0000FF;stroke-width:0.5" />
<path d="M54.961,58.114L58.496,54.579" style="fill:none;stroke:#0000FF;stroke-width:0.5" />
<path d="M54.961,54.579L58.496,58.114" style="fill:none;stroke:#0000FF;stroke-width:0.5" />
<path d="M54.961,58.114L58.496,54.579" style="fill:none;stroke:#0000FF;stroke-width:0.5" />
<path d="M54.961,54.579L58.496,58.114" style="fill:none;stroke:#0000FF;stroke-width:0.5" />
<path d="M54.961,58.114L58.496,54.579" style="fill:none;stroke:#0000FF;stroke-width:0.5" />
<path d="M54.961,54.579L58.496,58.114" style="fill:none;stroke:#0000FF;stroke-width:0.5" />
<path d="M54.961,58.114L58.496,54.579" style="fill:none;stroke:#0000FF;stroke-width:0.5" />
<path d="M54.961,54.579L58.496,58.114" style="fill:none;stroke:#0000FF;stroke-width:0.5" />
<path d="M54.961,58.114L58.496,54.579" style="fill:none;stroke:#0000FF;stroke-width:0.5" />
<path d="M54.961,54.579L58.496,58.114" style="fill:none;stroke:#0000FF;stroke-width:0.5" />
<path d="M54.961,58.114L58.496,54.579" style="fill:none;stroke:#0000FF;stroke-width:0.5" />
<path d="M54.961,54.579L58.496,58.114" style="fill:none;stroke:#0000FF;stroke-width:0.5" />
<path d="M54.961,58.114L58.496,54.579" style="fill:none;stroke:#0000FF;stroke-width:0.5" />
<path d="M54.961,54.579L58.496,58.114" style="fill:none;stroke:#0000FF;stroke-width:0.5" />
<path d="M54.961,58.114L58.496,54.579" style="fill:none;stroke:#0000FF;stroke-width:0.5" />
<path d="M54.961,54.579L58.496,58.114" style="fill:none;stroke:#0000FF;stroke-width:0.5" />
<path d="M54.961,58.114L58.496,54.579" style="fill:none;stroke:#0000FF;stroke-width:0.5" />
<path d="M54.961,54.579L58.496,58.114" style="fill:none;stroke:#0000FF;stroke-width:0.5" />
<path d="M54.961,58.114L58.496,54.579" style="fill:none;stroke:#0000FF;stroke-width:0.5" />
<path d="M54.961,54.579L58.496,58.114" style="fill:none;stroke:#0000FF;stroke-width:0.5" />
<path d="M54.961,58.114L58.496,54.579" style="fill:none;stroke:#0000FF;stroke-width:0.5" />
<path d="M54.961,54.579L58.496,58.114" style="fill:none;stroke:#0000FF;stroke-width:0.5" />
<path d="M54.961,58.114L58.496,54.579" style="fill:none;stroke:#0000FF;stroke-width:0.5" />
<path d="M54.961,54.579L58.496,58.114" style="fill:none;stroke:#0000FF;stroke-width:0.5" />
<path d="M54.961,58.114L58.496,54.579" style="fill:none;stroke:#0000FF;stroke-width:0.5" />
<path d="M54.961,54.579L58.496,58.114" style="fill:none;stroke:#0000FF;stroke-width:0.5" />
<path d="M54.961,58.114L58.496,54.579" style="fill:none;stroke:#0000FF;stroke-width:0.5" />
<path d="M54.961,54.579L58.496,58.114" style="fill:none;stroke:#0000FF;stroke-width:0.5" />
<path d="M54.961,58.114L58.496,54.579" style="fill:none;stroke:#0000FF;stroke-width:0.5" />
<path d="M54.961,54.579L58.496,58.114" style="fill:none;stroke:#0000FF;stroke-width:0.5" />
<path d="M54.961,58.114L58.496,54.579" style="fill:none;stroke:#0000FF;stroke-width:0.5" />
<path d="M54.961,54.579L58.496,58.114" style="fill:none;stroke:#0000FF;stroke-width:0.5" />
<path d="M54.961,58.114L58.496,54.579" style="fill:none;stroke:#0000FF;stroke-width:0.5" />
<path d="M54.961,54.579L58.496,58.114" style="fill:none;stroke:#0000FF;stroke-width:0.5" />
<path d="M54.961,58.114L58.496,54.579" style="fill:none;stroke:#0000FF;stroke-width:0.5" />
<path d="M54.961,54.579L58.496,58.114" style="fill:none;stroke:#0000FF;stroke-width:0.5" />
<path d="M54.961,58.114L58.496,54.579" style="fill:none;stroke:#0000FF;stroke-width:0.5" />
<path d="M54.961,54.579L58.496,58.114" style="fill:none;stroke:#0000FF;stroke-width:0.5" />
<path d="M54.961,58.114L58.496,54.579" style="fill:none;stroke:#0000FF;stroke-width:0.5" />
<path d="M54.961,54.579L58.496,58.114" style="fill:none;stroke:#0000FF;stroke-width:0.5" />
<path d="M54.961,58.114L58.496,54.579" style="fill:none;stroke:#0000FF;stroke-width:0.5" />
<path d="M54.961,54.579L58.496,58.114" style="fill:none;stroke:#0000FF;stroke-width:0.5" />
<path d="M54.961,58.114L58.496,54.579" style="fill:none;stroke:#0000FF;stroke-width:0.5" />
<path d="M54.961,54.579L58.496,58.114" style="fill:none;stroke:#0000FF;stroke-width:0.5" />
<path d="M54.961,58.114L58.496,54.579" style="fill:none;stroke:#0000FF;stroke-width:0.5" />
<path d="M54.961,54.579L58.496,58.114" style="fill:none;stroke:#0000FF;stroke-width:0.5" />
<path d="M54.961,58.114L58.496,54.579" style="fill:none;stroke:#0000FF;stroke-width:0.5" />
<path d="M54.961,54.579L58.496,58.114" style="fill:none;stroke:#0000FF;stroke-width:0.5" />
<path d="M54.961,58.114L58.496,54.579" style="fill:none;stroke:#0000FF;stroke-width:0.5" />
<path d="M54.961,54.579L58.496,58.114" style="fill:none;stroke:#0000FF;stroke-width:0.5" />
<path d="M54.961,58.114L58.496,54.579" style="fill:none;stroke:#0000FF;stroke-width:0.5" />
<path d="M54.961,54.579L58.496,58.114" style="fill:none;stroke:#0000FF;stroke-width:0.5" />
<path d="M54.961,58.114L58.496,54.579" style="fill:none;stroke:#0000FF;stroke-width:0.5" />
<path d="M54.961,54.579L58.496,58.114" style="fill:none;stroke:#0000FF;stroke-width:0.5" />
<path d="M54.961,58.114L58.496,54.579" style="fill:none;stroke:#0000FF;stroke-width:0.5" />
<path d="M54.961,54.579L58.496,58.114" style="fill:none;stroke:#0000FF;stroke-width:0.5" />
<path d="M54.961,58.114L58.496,54.579" style="fill:none;stroke:#0000FF;stroke-width:0.5" />
<path d="M54.961,54.579L58.496,58.114" style="fill:none;stroke:#0000FF;stroke-width:0.5" />
<path d="M54.961,58.114L58.496,54.579" style="fill:none;stroke:#0000FF;stroke-width:0.5" />
<path d="M54.961,54.579L58.496,58.114" style="fill:none;stroke:#0000FF;stroke-width:0.5" />
<path d="M54.961,58.114L58.496,54.579" style="fill:none;stroke:#0000FF;stroke-width:0.5" />
<path d="M54.961,54.579L58.496,58.114" style="fill:none;stroke:#0000FF;stroke-width:0.5" />
<path d="M54.961,58.114L58.496,54.579" style="fill:none;stroke:#0000FF;stroke-width:0.5" />
<path d="M54.961,54.579L58.496,58.114" style="fill:none;stroke:#0000FF;stroke-width:0.5" />
<path d="M54.961,58.114L58.496,54.579" style="fill:none;stroke:#0000FF;stroke-width:0.5" />
<path d="M54.961,54.579L58.496,58.114" style="fill:none;stroke:#0000FF;stroke-width:0.5" />
<path d="M54.961,58.114L58.496,54.579" style="fill:none;stroke:#0000FF;stroke-width:0.5" />
<path d="M54.961,54.579L58.496,58.114" style="fill:none;stroke:#0000FF;stroke-width:0.5" />
<path d="M54.961,58.114L58.496,54.579" style="fill:none;stroke:#0000FF;stroke-width:0.5" />
<path d="M54.961,54.579L58.496,58.114" style="fill:none;stroke:#0000FF;stroke-width:0.5" />
<path d="M54.961,58.114L58.496,54.579" style="fill:none;stroke:#0000FF;stroke-width:0.5" />
<path d="M54.961,54.579L58.496,58.114" style="fill:none;stroke:#0000FF;stroke-width:0.5" />
<path d="M54.961,58.114L58.496,54.579" style="fill:none;stroke:#0000FF;stroke-width:0.5" />
<path d="M54.961,54.579L58.496,58.114" style="fill:none;stroke:#0000FF;stroke-width:0.5" />
<path d="M54.961,58.114L58.496,54.579" style="fill:none;stroke:#0000FF;stroke-width:0.5" />
<path d="M54.961,54.579L58.496,58.114" style="fill:none;stroke:#0000FF;stroke-width:0.5" />
<path d="M54.961,58.114L58.496,54.579" style="fill:none;stroke:#0000FF;stroke-width:0.5" />
<path d="M54.961,54.579L58.496,58.114" style="fill:none;stroke:#0000FF;stroke-width:0.5" />
<path d="M54.961,58.114L58.496,54.579" style="fill:none;stroke:#0000FF;stroke-width:0.5" />
<path d="M74.228,63.857L77.763,67.392" style="fill:none;stroke:#0000FF;stroke-width:0.5" />
<path d="M74.228,67.392L77.763,63.857" style="fill:none;stroke:#0000FF;stroke-width:0.5" />
<path d="M74.598,63.907L78.134,67.442" style="fill:none;stroke:#0000FF;stroke-width:0.5" />
<path d="M74.598,67.442L78.134,63.907" style="fill:none;stroke:#0000FF;stroke-width:0.5" />
<path d="M80.526,66.89L84.062,70.425" style="fill:none;stroke:#0000FF;stroke-width:0.5" />
<path d="M80.526,70.425L84.062,66.89" style="fill:none;stroke:#0000FF;stroke-width:0.5" />
<path d="M329.14,195.49L332.68,199.02" style="fill:none;stroke:#0000FF;stroke-width:0.5" />
<path d="M329.14,199.02L332.68,195.49" style="fill:none;stroke:#0000FF;stroke-width:0.5" />
<path d="M70.152,62.847L73.687,66.382" style="fill:none;stroke:#0000FF;stroke-width:0.5" />
<path d="M70.152,66.382L73.687,62.847" style="fill:none;stroke:#0000FF;stroke-width:0.5" />
<path d="M90.901,71.461L94.436,74.997" style="fill:none;stroke:#0000FF;stroke-width:0.5" />
<path d="M90.901,74.997L94.436,71.461" style="fill:none;stroke:#0000FF;stroke-width:0.5" />
<path d="M314.32,172.43L317.86,175.97" style="fill:none;stroke:#0000FF;stroke-width:0.5" />
<path d="M314.32,175.97L317.86,172.43" style="fill:none;stroke:#0000FF;stroke-width:0.5" />
<path d="M54.961,54.877L58.496,58.413" style="fill:none;stroke:#0000FF;stroke-width:0.5" />
<path d="M54.961,58.413L58.496,54.877" style="fill:none;stroke:#0000FF;stroke-width:0.5" />
<path d="M56.072,56.594L59.608,60.13" style="fill:none;stroke:#0000FF;stroke-width:0.5" />
<path d="M56.072,60.13L59.608,56.594" style="fill:none;stroke:#0000FF;stroke-width:0.5" />
<path d="M67.188,64.114L70.723,67.65" style="fill:none;stroke:#0000FF;stroke-width:0.5" />
<path d="M67.188,67.65L70.723,64.114" style="fill:none;stroke:#0000FF;stroke-width:0.5" />
<path d="M79.785,67.248L83.321,70.783" style="fill:none;stroke:#0000FF;stroke-width:0.5" />
<path d="M79.785,70.783L83.321,67.248" style="fill:none;stroke:#0000FF;stroke-width:0.5" />
<path d="M82.379,68.017L85.914,71.552" style="fill:none;stroke:#0000FF;stroke-width:0.5" />
<path d="M82.379,71.552L85.914,68.017" style="fill:none;stroke:#0000FF;stroke-width:0.5" />
<path d="M247.63,136.33L251.16,139.87" style="fill:none;stroke:#0000FF;stroke-width:0.5" />
<path d="M247.63,139.87L251.16,136.33" style="fill:none;stroke:#0000FF;stroke-width:0.5" />
<path d="M262.45,149.75L265.99,153.29" style="fill:none;stroke:#0000FF;stroke-width:0.5" />
<path d="M262.45,153.29L265.99,149.75" style="fill:none;stroke:#0000FF;stroke-width:0.5" />
<path d="M56.813,57.031L60.349,60.567" style="fill:none;stroke:#0000FF;stroke-width:0.5" />
<path d="M56.813,60.567L60.349,57.031" style="fill:none;stroke:#0000FF;stroke-width:0.5" />
<path d="M63.112,60.176L66.648,63.712" style="fill:none;stroke:#0000FF;stroke-width:0.5" />
<path d="M63.112,63.712L66.648,60.176" style="fill:none;stroke:#0000FF;stroke-width:0.5" />
<path d="M67.558,62.704L71.094,66.239" style="fill:none;stroke:#0000FF;stroke-width:0.5" />
<path d="M67.558,66.239L71.094,62.704" style="fill:none;stroke:#0000FF;stroke-width:0.5" />
<path d="M56.443,56.747L59.978,60.283" style="fill:none;stroke:#0000FF;stroke-width:0.5" />
<path d="M56.443,60.283L59.978,56.747" style="fill:none;stroke:#0000FF;stroke-width:0.5" />
<path d="M62.371,59.719L65.907,63.254" style="fill:none;stroke:#0000FF;stroke-width:0.5" />
<path d="M62.371,63.254L65.907,59.719" style="fill:none;stroke:#0000FF;stroke-width:0.5" />
<path d="M63.853,60.826L67.389,64.361" style="fill:none;stroke:#0000FF;stroke-width:0.5" />
<path d="M63.853,64.361L67.389,60.826" style="fill:none;stroke:#0000FF;stroke-width:0.5" />
<path d="M64.594,60.514L68.13,64.049" style="fill:none;stroke:#0000FF;stroke-width:0.5" />
<path d="M64.594,64.049L68.13,60.514" style="fill:none;stroke:#0000FF;stroke-width:0.5" />
<path d="M68.299,62.511L71.835,66.046" style="fill:none;stroke:#0000FF;stroke-width:0.5" />
<path d="M68.299,66.046L71.835,62.511" style="fill:none;stroke:#0000FF;stroke-width:0.5" />
<path d="M79.415,66.993L82.95,70.529" style="fill:none;stroke:#0000FF;stroke-width:0.5" />
<path d="M79.415,70.529L82.95,66.993" style="fill:none;stroke:#0000FF;stroke-width:0.5" />
<path d="M318.03,170.23L321.56,173.76" style="fill:none;stroke:#0000FF;stroke-width:0.5" />
<path d="M318.03,173.76L321.56,170.23" style="fill:none;stroke:#0000FF;stroke-width:0.5" />
<path d="M61.26,59.244L64.795,62.779" style="fill:none;stroke:#0000FF;stroke-width:0.5" />
<path d="M61.26,62.779L64.795,59.244" style="fill:none;stroke:#0000FF;stroke-width:0.5" />
<path d="M70.893,63.264L74.428,66.8" style="fill:none;stroke:#0000FF;stroke-width:0.5" />
<path d="M70.893,66.8L74.428,63.264" style="fill:none;stroke:#0000FF;stroke-width:0.5" />
<path d="M78.674,66.756L82.209,70.292" style="fill:none;stroke:#0000FF;stroke-width:0.5" />
<path d="M78.674,70.292L82.209,66.756" style="fill:none;stroke:#0000FF;stroke-width:0.5" />
<path d="M84.232,68.217L87.767,71.752" style="fill:none;stroke:#0000FF;stroke-width:0.5" />
<path d="M84.232,71.752L87.767,68.217" style="fill:none;stroke:#0000FF;stroke-width:0.5" />
<path d="M87.566,69.547L91.102,73.082" style="fill:none;stroke:#0000FF;stroke-width:0.5" />
<path d="M87.566,73.082L91.102,69.547" style="fill:none;stroke:#0000FF;stroke-width:0.5" />
<path d="M87.937,70.081L91.472,73.617" style="fill:none;stroke:#0000FF;stroke-width:0.5" />
<path d="M87.937,73.617L91.472,70.081" style="fill:none;stroke:#0000FF;stroke-width:0.5" />
<path d="M88.307,69.192L91.843,72.728" style="fill:none;stroke:#0000FF;stroke-width:0.5" />
<path d="M88.307,72.728L91.843,69.192" style="fill:none;stroke:#0000FF;stroke-width:0.5" />
<path d="M351.37,171.71L354.91,175.25" style="fill:none;stroke:#0000FF;stroke-width:0.5" />
<path d="M351.37,175.25L354.91,171.71" style="fill:none;stroke:#0000FF;stroke-width:0.5" />
<path d="M58.666,57.381L62.201,60.917" style="fill:none;stroke:#0000FF;stroke-width:0.5" />
<path d="M58.666,60.917L62.201,57.381" style="fill:none;stroke:#0000FF;stroke-width:0.5" />
<path d="M65.335,60.839L68.871,64.374" style="fill:none;stroke:#0000FF;stroke-width:0.5" />
<path d="M65.335,64.374L68.871,60.839" style="fill:none;stroke:#0000FF;stroke-width:0.5" />
<path d="M355.08,197.36L358.61,200.9" style="fill:none;stroke:#0000FF;stroke-width:0.5" />
<path d="M355.08,200.9L358.61,197.36" style="fill:none;stroke:#0000FF;stroke-width:0.5" />
<path d="M77.192,65.342L80.727,68.878" style="fill:none;stroke:#0000FF;stroke-width:0.5" />
<path d="M77.192,68.878L80.727,65.342" style="fill:none;stroke:#0000FF;stroke-width:0.5" />
<path d="M83.861,68.089L87.397,71.625" style="fill:none;stroke:#0000FF;stroke-width:0.5" />
<path d="M83.861,71.625L87.397,68.089" style="fill:none;stroke:#0000FF;stroke-width:0.5" />
<path d="M303.21,221.53L306.74,225.07" style="fill:none;stroke:#0000FF;stroke-width:0.5" />
<path d="M303.21,225.07L306.74,221.53" style="fill:none;stroke:#0000FF;stroke-width:0.5" />
<path d="M72.004,63.617L75.54,67.153" style="fill:none;stroke:#0000FF;stroke-width:0.5" />
<path d="M72.004,67.153L75.54,63.617" style="fill:none;stroke:#0000FF;stroke-width:0.5" />
<path d="M89.048,70.85L92.584,74.385" style="fill:none;stroke:#0000FF;stroke-width:0.5" />
<path d="M89.048,74.385L92.584,70.85" style="fill:none;stroke:#0000FF;stroke-width:0.5" />
<path d="M273.57,178.43L277.1,181.97" style="fill:none;stroke:#0000FF;stroke-width:0.5" />
<path d="M273.57,181.97L277.1,178.43" style="fill:none;stroke:#0000FF;stroke-width:0.5" />
<path d="M57.554,57.148L61.09,60.683" style="fill:none;stroke:#0000FF;stroke-width:0.5" />
<path d="M57.554,60.683L61.09,57.148" style="fill:none;stroke:#0000FF;stroke-width:0.5" />
<path d="M66.447,61.049L69.982,64.585" style="fill:none;stroke:#0000FF;stroke-width:0.5" />
<path d="M66.447,64.585L69.982,61.049" style="fill:none;stroke:#0000FF;stroke-width:0.5" />
<path d="M68.67,62.301L72.205,65.837" style="fill:none;stroke:#0000FF;stroke-width:0.5" />
<path d="M68.67,65.837L72.205,62.301" style="fill:none;stroke:#0000FF;stroke-width:0.5" />
<path d="M69.411,62.589L72.946,66.124" style="fill:none;stroke:#0000FF;stroke-width:0.5" />
<path d="M69.411,66.124L72.946,62.589" style="fill:none;stroke:#0000FF;stroke-width:0.5" />
<path d="M83.12,68.275L86.656,71.81" style="fill:none;stroke:#0000FF;stroke-width:0.5" />
<path d="M83.12,71.81L86.656,68.275" style="fill:none;stroke:#0000FF;stroke-width:0.5" />
<path d="M58.295,57.712L61.831,61.247" style="fill:none;stroke:#0000FF;stroke-width:0.5" />
<path d="M58.295,61.247L61.831,57.712" style="fill:none;stroke:#0000FF;stroke-width:0.5" />
<path d="M66.817,61.135L70.353,64.671" style="fill:none;stroke:#0000FF;stroke-width:0.5" />
<path d="M66.817,64.671L70.353,61.135" style="fill:none;stroke:#0000FF;stroke-width:0.5" />
<path d="M81.638,67.463L85.173,70.999" style="fill:none;stroke:#0000FF;stroke-width:0.5" />
<path d="M81.638,70.999L85.173,67.463" style="fill:none;stroke:#0000FF;stroke-width:0.5" />
<path d="M89.419,71.622L92.954,75.157" style="fill:none;stroke:#0000FF;stroke-width:0.5" />
<path d="M89.419,75.157L92.954,71.622" style="fill:none;stroke:#0000FF;stroke-width:0.5" />
<path d="M299.5,280.92L303.04,284.46" style="fill:none;stroke:#0000FF;stroke-width:0.5" />
<path d="M299.5,284.46L303.04,280.92" style="fill:none;stroke:#0000FF;stroke-width:0.5" />
<path d="M321.73,215.9L325.27,219.44" style="fill:none;stroke:#0000FF;stroke-width:0.5" />
<path d="M321.73,219.44L325.27,215.9" style="fill:none;stroke:#0000FF;stroke-width:0.5" />
<path d="M325.44,205.28L328.97,208.82" style="fill:none;stroke:#0000FF;stroke-width:0.5" />
<path d="M325.44,208.82L328.97,205.28" style="fill:none;stroke:#0000FF;stroke-width:0.5" />
<path d="M73.487,64.367L77.022,67.903" style="fill:none;stroke:#0000FF;stroke-width:0.5" />
<path d="M73.487,67.903L77.022,64.367" style="fill:none;stroke:#0000FF;stroke-width:0.5" />
<path d="M85.714,68.973L89.249,72.508" style="fill:none;stroke:#0000FF;stroke-width:0.5" />
<path d="M85.714,72.508L89.249,68.973" style="fill:none;stroke:#0000FF;stroke-width:0.5" />
<path d="M277.27,252.66L280.81,256.2" style="fill:none;stroke:#0000FF;stroke-width:0.5" />
<path d="M277.27,256.2L280.81,252.66" style="fill:none;stroke:#0000FF;stroke-width:0.5" />
<path d="M59.407,59.051L62.942,62.587" style="fill:none;stroke:#0000FF;stroke-width:0.5" />
<path d="M59.407,62.587L62.942,59.051" style="fill:none;stroke:#0000FF;stroke-width:0.5" />
<path d="M60.518,58.798L64.054,62.334" style="fill:none;stroke:#0000FF;stroke-width:0.5" />
<path d="M60.518,62.334L64.054,58.798" style="fill:none;stroke:#0000FF;stroke-width:0.5" />
<path d="M87.196,69.413L90.731,72.948" style="fill:none;stroke:#0000FF;stroke-width:0.5" />
<path d="M87.196,72.948L90.731,69.413" style="fill:none;stroke:#0000FF;stroke-width:0.5" />
<path d="M255.04,142.45L258.57,145.99" style="fill:none;stroke:#0000FF;stroke-width:0.5" />
<path d="M255.04,145.99L258.57,142.45" style="fill:none;stroke:#0000FF;stroke-width:0.5" />
<path d="M60.889,59.617L64.425,63.153" style="fill:none;stroke:#0000FF;stroke-width:0.5" />
<path d="M60.889,63.153L64.425,59.617" style="fill:none;stroke:#0000FF;stroke-width:0.5" />
<path d="M69.04,62.759L72.576,66.295" style="fill:none;stroke:#0000FF;stroke-width:0.5" />
<path d="M69.04,66.295L72.576,62.759" style="fill:none;stroke:#0000FF;stroke-width:0.5" />
<path d="M69.781,62.811L73.317,66.347" style="fill:none;stroke:#0000FF;stroke-width:0.5" />
<path d="M69.781,66.347L73.317,62.811" style="fill:none;stroke:#0000FF;stroke-width:0.5" />
<path d="M71.634,63.712L75.17,67.248" style="fill:none;stroke:#0000FF;stroke-width:0.5" />
<path d="M71.634,67.248L75.17,63.712" style="fill:none;stroke:#0000FF;stroke-width:0.5" />
<path d="M75.71,64.29L79.245,67.826" style="fill:none;stroke:#0000FF;stroke-width:0.5" />
<path d="M75.71,67.826L79.245,64.29" style="fill:none;stroke:#0000FF;stroke-width:0.5" />
<path d="M78.303,67.803L81.839,71.338" style="fill:none;stroke:#0000FF;stroke-width:0.5" />
<path d="M78.303,71.338L81.839,67.803" style="fill:none;stroke:#0000FF;stroke-width:0.5" />
<path d="M80.156,67.421L83.691,70.957" style="fill:none;stroke:#0000FF;stroke-width:0.5" />
<path d="M80.156,70.957L83.691,67.421" style="fill:none;stroke:#0000FF;stroke-width:0.5" />
<path d="M288.39,150.93L291.92,154.46" style="fill:none;stroke:#0000FF;stroke-width:0.5" />
<path d="M288.39,154.46L291.92,150.93" style="fill:none;stroke:#0000FF;stroke-width:0.5" />
<path d="M332.85,281.69L336.38,285.23" style="fill:none;stroke:#0000FF;stroke-width:0.5" />
<path d="M332.85,285.23L336.38,281.69" style="fill:none;stroke:#0000FF;stroke-width:0.5" />
<path d="M343.96,306.3L347.5,309.83" style="fill:none;stroke:#0000FF;stroke-width:0.5" />
<path d="M343.96,309.83L347.5,306.3" style="fill:none;stroke:#0000FF;stroke-width:0.5" />
<path d="M61.63,59.191L65.166,62.726" style="fill:none;stroke:#0000FF;stroke-width:0.5" />
<path d="M61.63,62.726L65.166,59.191" style="fill:none;stroke:#0000FF;stroke-width:0.5" />
<path d="M66.076,60.964L69.612,64.499" style="fill:none;stroke:#0000FF;stroke-width:0.5" />
<path d="M66.076,64.499L69.612,60.964" style="fill:none;stroke:#0000FF;stroke-width:0.5" />
<path d="M80.897,68.193L84.432,71.729" style="fill:none;stroke:#0000FF;stroke-width:0.5" />
<path d="M80.897,71.729L84.432,68.193" style="fill:none;stroke:#0000FF;stroke-width:0.5" />
<path d="M90.53,70.938L94.066,74.474" style="fill:none;stroke:#0000FF;stroke-width:0.5" />
<path d="M90.53,74.474L94.066,70.938" style="fill:none;stroke:#0000FF;stroke-width:0.5" />
<path d="M266.15,160.49L269.69,164.02" style="fill:none;stroke:#0000FF;stroke-width:0.5" />
<path d="M266.15,164.02L269.69,160.49" style="fill:none;stroke:#0000FF;stroke-width:0.5" />
<path d="M84.973,68.957L88.508,72.493" style="fill:none;stroke:#0000FF;stroke-width:0.5" />
<path d="M84.973,72.493L88.508,68.957" style="fill:none;stroke:#0000FF;stroke-width:0.5" />
<path d="M85.343,68.895L88.879,72.43" style="fill:none;stroke:#0000FF;stroke-width:0.5" />
<path d="M85.343,72.43L88.879,68.895" style="fill:none;stroke:#0000FF;stroke-width:0.5" />
<path d="M90.16,70.036L93.695,73.571" style="fill:none;stroke:#0000FF;stroke-width:0.5" />
<path d="M90.16,73.571L93.695,70.036" style="fill:none;stroke:#0000FF;stroke-width:0.5" />
<path d="M347.67,173.7L351.2,177.23" style="fill:none;stroke:#0000FF;stroke-width:0.5" />
<path d="M347.67,177.23L351.2,173.7" style="fill:none;stroke:#0000FF;stroke-width:0.5" />
<path d="M75.339,64.265L78.875,67.801" style="fill:none;stroke:#0000FF;stroke-width:0.5" />
<path d="M75.339,67.801L78.875,64.265" style="fill:none;stroke:#0000FF;stroke-width:0.5" />
<path d="M81.267,68.367L84.803,71.903" style="fill:none;stroke:#0000FF;stroke-width:0.5" />
<path d="M81.267,71.903L84.803,68.367" style="fill:none;stroke:#0000FF;stroke-width:0.5" />
<path d="M84.602,68.712L88.138,72.248" style="fill:none;stroke:#0000FF;stroke-width:0.5" />
<path d="M84.602,72.248L88.138,68.712" style="fill:none;stroke:#0000FF;stroke-width:0.5" />
<path d="M57.925,57.716L61.46,61.251" style="fill:none;stroke:#0000FF;stroke-width:0.5" />
<path d="M57.925,61.251L61.46,57.716" style="fill:none;stroke:#0000FF;stroke-width:0.5" />
<path d="M60.148,58.988L63.684,62.524" style="fill:none;stroke:#0000FF;stroke-width:0.5" />
<path d="M60.148,62.524L63.684,58.988" style="fill:none;stroke:#0000FF;stroke-width:0.5" />
<path d="M86.455,69.586L89.99,73.122" style="fill:none;stroke:#0000FF;stroke-width:0.5" />
<path d="M86.455,73.122L89.99,69.586" style="fill:none;stroke:#0000FF;stroke-width:0.5" />
<path d="M243.92,139.8L247.46,143.34" style="fill:none;stroke:#0000FF;stroke-width:0.5" />
<path d="M243.92,143.34L247.46,139.8" style="fill:none;stroke:#0000FF;stroke-width:0.5" />
<path d="M62.742,60.069L66.277,63.605" style="fill:none;stroke:#0000FF;stroke-width:0.5" />
<path d="M62.742,63.605L66.277,60.069" style="fill:none;stroke:#0000FF;stroke-width:0.5" />
<path d="M82.008,68.393L85.544,71.928" style="fill:none;stroke:#0000FF;stroke-width:0.5" />
<path d="M82.008,71.928L85.544,68.393" style="fill:none;stroke:#0000FF;stroke-width:0.5" />
<path d="M89.789,71.612L93.325,75.148" style="fill:none;stroke:#0000FF;stroke-width:0.5" />
<path d="M89.789,75.148L93.325,71.612" style="fill:none;stroke:#0000FF;stroke-width:0.5" />
<path d="M284.68,154L288.22,157.54" style="fill:none;stroke:#0000FF;stroke-width:0.5" />
<path d="M284.68,157.54L288.22,154" style="fill:none;stroke:#0000FF;stroke-width:0.5" />
<path d="M59.777,60.142L63.313,63.677" style="fill:none;stroke:#0000FF;stroke-width:0.5" />
<path d="M59.777,63.677L63.313,60.142" style="fill:none;stroke:#0000FF;stroke-width:0.5" />
<path d="M65.706,61.422L69.241,64.958" style="fill:none;stroke:#0000FF;stroke-width:0.5" />
<path d="M65.706,64.958L69.241,61.422" style="fill:none;stroke:#0000FF;stroke-width:0.5" />
<path d="M76.451,65.775L79.986,69.311" style="fill:none;stroke:#0000FF;stroke-width:0.5" />
<path d="M76.451,69.311L79.986,65.775" style="fill:none;stroke:#0000FF;stroke-width:0.5" />
<path d="M76.821,65.446L80.357,68.982" style="fill:none;stroke:#0000FF;stroke-width:0.5" />
<path d="M76.821,68.982L80.357,65.446" style="fill:none;stroke:#0000FF;stroke-width:0.5" />
<path d="M76.08,64.83L79.616,68.365" style="fill:none;stroke:#0000FF;stroke-width:0.5" />
<path d="M76.08,68.365L79.616,64.83" style="fill:none;stroke:#0000FF;stroke-width:0.5" />
<path d="M77.562,65.473L81.098,69.009" style="fill:none;stroke:#0000FF;stroke-width:0.5" />
<path d="M77.562,69.009L81.098,65.473" style="fill:none;stroke:#0000FF;stroke-width:0.5" />
<path d="M67.929,62.06L71.464,65.596" style="fill:none;stroke:#0000FF;stroke-width:0.5" />
<path d="M67.929,65.596L71.464,62.06" style="fill:none;stroke:#0000FF;stroke-width:0.5" />
<path d="M91.271,72.778L94.807,76.314" style="fill:none;stroke:#0000FF;stroke-width:0.5" />
<path d="M91.271,76.314L94.807,72.778" style="fill:none;stroke:#0000FF;stroke-width:0.5" />
<path d="M72.375,63.769L75.911,67.305" style="fill:none;stroke:#0000FF;stroke-width:0.5" />
<path d="M72.375,67.305L75.911,63.769" style="fill:none;stroke:#0000FF;stroke-width:0.5" />
<path d="M74.969,63.897L78.504,67.432" style="fill:none;stroke:#0000FF;stroke-width:0.5" />
<path d="M74.969,67.432L78.504,63.897" style="fill:none;stroke:#0000FF;stroke-width:0.5" />
<path d="M269.86,159.74L273.4,163.27" style="fill:none;stroke:#0000FF;stroke-width:0.5" />
<path d="M269.86,163.27L273.4,159.74" style="fill:none;stroke:#0000FF;stroke-width:0.5" />
<path d="M292.09,178.77L295.63,182.3" style="fill:none;stroke:#0000FF;stroke-width:0.5" />
<path d="M292.09,182.3L295.63,178.77" style="fill:none;stroke:#0000FF;stroke-width:0.5" />
<path d="M55.331,56.369L58.867,59.904" style="fill:none;stroke:#0000FF;stroke-width:0.5" />
<path d="M55.331,59.904L58.867,56.369" style="fill:none;stroke:#0000FF;stroke-width:0.5" />
<path d="M64.224,61.021L67.759,64.557" style="fill:none;stroke:#0000FF;stroke-width:0.5" />
<path d="M64.224,64.557L67.759,61.021" style="fill:none;stroke:#0000FF;stroke-width:0.5" />
<path d="M86.825,69.243L90.361,72.779" style="fill:none;stroke:#0000FF;stroke-width:0.5" />
<path d="M86.825,72.779L90.361,69.243" style="fill:none;stroke:#0000FF;stroke-width:0.5" />
<path d="M310.62,173.9L314.15,177.44" style="fill:none;stroke:#0000FF;stroke-width:0.5" />
<path d="M310.62,177.44L314.15,173.9" style="fill:none;stroke:#0000FF;stroke-width:0.5" />
<path d="M340.26,232.61L343.79,236.15" style="fill:none;stroke:#0000FF;stroke-width:0.5" />
<path d="M340.26,236.15L343.79,232.61" style="fill:none;stroke:#0000FF;stroke-width:0.5" />
<path d="M62.001,59.716L65.536,63.252" style="fill:none;stroke:#0000FF;stroke-width:0.5" />
<path d="M62.001,63.252L65.536,59.716" style="fill:none;stroke:#0000FF;stroke-width:0.5" />
<path d="M64.965,60.865L68.5,64.401" style="fill:none;stroke:#0000FF;stroke-width:0.5" />
<path d="M64.965,64.401L68.5,60.865" style="fill:none;stroke:#0000FF;stroke-width:0.5" />
<path d="M73.116,65.513L76.652,69.048" style="fill:none;stroke:#0000FF;stroke-width:0.5" />
<path d="M73.116,69.048L76.652,65.513" style="fill:none;stroke:#0000FF;stroke-width:0.5" />
<path d="M82.749,67.933L86.285,71.468" style="fill:none;stroke:#0000FF;stroke-width:0.5" />
<path d="M82.749,71.468L86.285,67.933" style="fill:none;stroke:#0000FF;stroke-width:0.5" />
<path d="M63.483,61.395L67.018,64.93" style="fill:none;stroke:#0000FF;stroke-width:0.5" />
<path d="M63.483,64.93L67.018,61.395" style="fill:none;stroke:#0000FF;stroke-width:0.5" />
<path d="M70.522,63.25L74.058,66.786" style="fill:none;stroke:#0000FF;stroke-width:0.5" />
<path d="M70.522,66.786L74.058,63.25" style="fill:none;stroke:#0000FF;stroke-width:0.5" />
<path d="M71.263,63.235L74.799,66.77" style="fill:none;stroke:#0000FF;stroke-width:0.5" />
<path d="M71.263,66.77L74.799,63.235" style="fill:none;stroke:#0000FF;stroke-width:0.5" />
<path d="M72.746,63.994L76.281,67.529" style="fill:none;stroke:#0000FF;stroke-width:0.5" />
<path d="M72.746,67.529L76.281,63.994" style="fill:none;stroke:#0000FF;stroke-width:0.5" />
<path d="M79.044,66.978L82.58,70.514" style="fill:none;stroke:#0000FF;stroke-width:0.5" />
<path d="M79.044,70.514L82.58,66.978" style="fill:none;stroke:#0000FF;stroke-width:0.5" />
<path d="M83.49,68.281L87.026,71.817" style="fill:none;stroke:#0000FF;stroke-width:0.5" />
<path d="M83.49,71.817L87.026,68.281" style="fill:none;stroke:#0000FF;stroke-width:0.5" />
<path d="M91.642,71.509L95.177,75.045" style="fill:none;stroke:#0000FF;stroke-width:0.5" />
<path d="M91.642,75.045L95.177,71.509" style="fill:none;stroke:#0000FF;stroke-width:0.5" />
<path d="M336.55,222.79L340.09,226.33" style="fill:none;stroke:#0000FF;stroke-width:0.5" />
<path d="M336.55,226.33L340.09,222.79" style="fill:none;stroke:#0000FF;stroke-width:0.5" />
<path d="M57.184,57.237L60.719,60.772" style="fill:none;stroke:#0000FF;stroke-width:0.5" />
<path d="M57.184,60.772L60.719,57.237" style="fill:none;stroke:#0000FF;stroke-width:0.5" />
<path d="M59.036,58.823L62.572,62.359" style="fill:none;stroke:#0000FF;stroke-width:0.5" />
<path d="M59.036,62.359L62.572,58.823" style="fill:none;stroke:#0000FF;stroke-width:0.5" />
<path d="M86.084,69.262L89.62,72.798" style="fill:none;stroke:#0000FF;stroke-width:0.5" />
<path d="M86.084,72.798L89.62,69.262" style="fill:none;stroke:#0000FF;stroke-width:0.5" />
<path d="M55.702,56.5L59.237,60.036" style="fill:none;stroke:#0000FF;stroke-width:0.5" />
<path d="M55.702,60.036L59.237,56.5" style="fill:none;stroke:#0000FF;stroke-width:0.5" />
<path d="M73.857,64.553L77.393,68.089" style="fill:none;stroke:#0000FF;stroke-width:0.5" />
<path d="M73.857,68.089L77.393,64.553" style="fill:none;stroke:#0000FF;stroke-width:0.5" />
<path d="M77.933,68.359L81.468,71.895" style="fill:none;stroke:#0000FF;stroke-width:0.5" />
<path d="M77.933,71.895L81.468,68.359" style="fill:none;stroke:#0000FF;stroke-width:0.5" />
<path d="M240.22,147.47L243.75,151.01" style="fill:none;stroke:#0000FF;stroke-width:0.5" />
<path d="M240.22,151.01L243.75,147.47" style="fill:none;stroke:#0000FF;stroke-width:0.5" />
<path d="M295.8,173.77L299.33,177.31" style="fill:none;stroke:#0000FF;stroke-width:0.5" />
<path d="M295.8,177.31L299.33,173.77" style="fill:none;stroke:#0000FF;stroke-width:0.5" />
<path d="M306.91,204.14L310.45,207.68" style="fill:none;stroke:#0000FF;stroke-width:0.5" />
<path d="M306.91,207.68L310.45,204.14" style="fill:none;stroke:#0000FF;stroke-width:0.5" />
<path d="M88.678,69.917L92.213,73.453" style="fill:none;stroke:#0000FF;stroke-width:0.5" />
<path d="M88.678,73.453L92.213,69.917" style="fill:none;stroke:#0000FF;stroke-width:0.5" />
<path d="M251.33,142.01L254.87,145.54" style="fill:none;stroke:#0000FF;stroke-width:0.5" />
<path d="M251.33,145.54L254.87,142.01" style="fill:none;stroke:#0000FF;stroke-width:0.5" />
<path d="M280.98,159.88L284.51,163.42" style="fill:none;stroke:#0000FF;stroke-width:0.5" />
<path d="M280.98,163.42L284.51,159.88" style="fill:none;stroke:#0000FF;stroke-width:0.5" />
<path d="M56.729,56.64L57.239,56.934L57.75,57.228L58.261,57.522L58.771,57.816L59.282,58.11L59.793,58.404L60.303,58.698L60.814,58.992L61.325,59.286L61.836,59.58L62.346,59.874L62.857,60.168L63.368,60.462L63.878,60.756L64.389,61.05L64.9,61.345L65.411,61.639L65.921,61.933L66.432,62.227L66.943,62.521L67.453,62.815L67.964,63.109L68.475,63.403L68.986,63.697L69.496,63.991L70.007,64.285L70.518,64.579L71.028,64.873L71.539,65.167L72.05,65.461L72.561,65.755L73.071,66.049L73.582,66.344L74.093,66.638L74.603,66.932L75.114,67.226L75.625,67.52L76.136,67.814L76.646,68.108L77.157,68.402L77.668,68.696L78.178,68.99L78.689,69.284L79.2,69.578L79.711,69.872L80.221,70.166L80.732,70.46L81.243,70.754L81.753,71.048L82.264,71.343L82.775,71.637L83.286,71.931L83.796,72.225L84.307,72.519L84.818,72.813L85.328,73.107L85.839,73.401L86.35,73.695L86.86,73.989L87.371,74.283L87.882,74.577L88.393,74.871L88.903,75.165L89.414,75.459L89.925,75.753L90.435,76.047L90.946,76.342L91.457,76.636L91.968,76.93L92.478,77.224L92.989,77.518L93.5,77.812L94.01,78.106L94.521,78.4L95.032,78.694L95.543,78.988L96.053,79.282L96.564,79.576L97.075,79.87L97.585,80.164L98.096,80.458L98.607,80.752L99.118,81.046L99.628,81.341L100.14,81.635L100.65,81.929L101.16,82.223L101.67,82.517L102.18,82.811L102.69,83.105L103.2,83.399L103.71,83.693L104.22,83.987L104.74,84.281L105.25,84.575L105.76,84.869L106.27,85.163L106.78,85.457L107.29,85.751L107.8,86.045L108.31,86.34L108.82,86.634L109.33,86.928L109.84,87.222L110.35,87.516L110.86,87.81L111.37,88.104L111.89,88.398L112.4,88.692L112.91,88.986L113.42,89.28L113.93,89.574L114.44,89.868L114.95,90.162L115.46,90.456L115.97,90.75L116.48,91.044L116.99,91.338L117.5,91.633L118.01,91.927L118.52,92.221L119.04,92.515L119.55,92.809L120.06,93.103L120.57,93.397L121.08,93.691L121.59,93.985L122.1,94.279L122.61,94.573L123.12,94.867L123.63,95.161L124.14,95.455L124.65,95.749L125.16,96.043L125.67,96.337L126.19,96.631L126.7,96.926L127.21,97.22L127.72,97.514L128.23,97.808L128.74,98.102L129.25,98.396L129.76,98.69L130.27,98.984L130.78,99.278L131.29,99.572L131.8,99.866L132.31,100.16L132.82,100.45L133.34,100.75L133.85,101.04L134.36,101.34L134.87,101.63L135.38,101.92L135.89,102.22L136.4,102.51L136.91,102.81L137.42,103.1L137.93,103.39L138.44,103.69L138.95,103.98L139.46,104.28L139.97,104.57L140.49,104.86L141,105.16L141.51,105.45L142.02,105.75L142.53,106.04L143.04,106.34L143.55,106.63L144.06,106.92L144.57,107.22L145.08,107.51L145.59,107.81L146.1,108.1L146.61,108.39L147.12,108.69L147.64,108.98L148.15,109.28L148.66,109.57L149.17,109.86L149.68,110.16L150.19,110.45L150.7,110.75L151.21,111.04L151.72,111.33L152.23,111.63L152.74,111.92L153.25,112.22L153.76,112.51L154.27,112.8L154.79,113.1L155.3,113.39L155.81,113.69L156.32,113.98L156.83,114.27L157.34,114.57L157.85,114.86L158.36,115.16L158.87,115.45L159.38,115.74L159.89,116.04L160.4,116.33L160.91,116.63L161.42,116.92L161.94,117.22L162.45,117.51L162.96,117.8L163.47,118.1L163.98,118.39L164.49,118.69L165,118.98L165.51,119.27L166.02,119.57L166.53,119.86L167.04,120.16L167.55,120.45L168.06,120.74L168.57,121.04L169.09,121.33L169.6,121.63L170.11,121.92L170.62,122.21L171.13,122.51L171.64,122.8L172.15,123.1L172.66,123.39L173.17,123.68L173.68,123.98L174.19,124.27L174.7,124.57L175.21,124.86L175.72,125.15L176.23,125.45L176.75,125.74L177.26,126.04L177.77,126.33L178.28,126.62L178.79,126.92L179.3,127.21L179.81,127.51L180.32,127.8L180.83,128.1L181.34,128.39L181.85,128.68L182.36,128.98L182.87,129.27L183.38,129.57L183.9,129.86L184.41,130.15L184.92,130.45L185.43,130.74L185.94,131.04L186.45,131.33L186.96,131.62L187.47,131.92L187.98,132.21L188.49,132.51L189,132.8L189.51,133.09L190.02,133.39L190.53,133.68L191.05,133.98L191.56,134.27L192.07,134.56L192.58,134.86L193.09,135.15L193.6,135.45L194.11,135.74L194.62,136.03L195.13,136.33L195.64,136.62L196.15,136.92L196.66,137.21L197.17,137.5L197.68,137.8L198.2,138.09L198.71,138.39L199.22,138.68L199.73,138.97L200.24,139.27L200.75,139.56L201.26,139.86L201.77,140.15L202.28,140.45L202.79,140.74L203.3,141.03L203.81,141.33L204.32,141.62L204.83,141.92L205.35,142.21L205.86,142.5L206.37,142.8L206.88,143.09L207.39,143.39L207.9,143.68L208.41,143.97L208.92,144.27L209.43,144.56L209.94,144.86L210.45,145.15L210.96,145.44L211.47,145.74L211.98,146.03L212.5,146.33L213.01,146.62L213.52,146.91L214.03,147.21L214.54,147.5L215.05,147.8L215.56,148.09L216.07,148.38L216.58,148.68L217.09,148.97L217.6,149.27L218.11,149.56L218.62,149.85L219.13,150.15L219.65,150.44L220.16,150.74L220.67,151.03L221.18,151.32L221.69,151.62L222.2,151.91L222.71,152.21L223.22,152.5L223.73,152.79L224.24,153.09L224.75,153.38L225.26,153.68L225.77,153.97L226.28,154.27L226.8,154.56L227.31,154.85L227.82,155.15L228.33,155.44L228.84,155.74L229.35,156.03L229.86,156.32L230.37,156.62L230.88,156.91L231.39,157.21L231.9,157.5L232.41,157.79L232.92,158.09L233.43,158.38L233.95,158.68L234.46,158.97L234.97,159.26L235.48,159.56L235.99,159.85L236.5,160.15L237.01,160.44L237.52,160.73L238.03,161.03L238.54,161.32L239.05,161.62L239.56,161.91L240.07,162.2L240.58,162.5L241.1,162.79L241.61,163.09L242.12,163.38L242.63,163.67L243.14,163.97L243.65,164.26L244.16,164.56L244.67,164.85L245.18,165.14L245.69,165.44L246.2,165.73L246.71,166.03L247.22,166.32L247.73,166.62L248.25,166.91L248.76,167.2L249.27,167.5L249.78,167.79L250.29,168.09L250.8,168.38L251.31,168.67L251.82,168.97L252.33,169.26L252.84,169.56L253.35,169.85L253.86,170.14L254.37,170.44L254.88,170.73L255.4,171.03L255.91,171.32L256.42,171.61L256.93,171.91L257.44,172.2L257.95,172.5L258.46,172.79L258.97,173.08L259.48,173.38L259.99,173.67L260.5,173.97L261.01,174.26L261.52,174.55L262.03,174.85L262.55,175.14L263.06,175.44L263.57,175.73L264.08,176.02L264.59,176.32L265.1,176.61L265.61,176.91L266.12,177.2L266.63,177.49L267.14,177.79L267.65,178.08L268.16,178.38L268.67,178.67L269.18,178.96L269.7,179.26L270.21,179.55L270.72,179.85L271.23,180.14L271.74,180.43L272.25,180.73L272.76,181.02L273.27,181.32L273.78,181.61L274.29,181.91L274.8,182.2L275.31,182.49L275.82,182.79L276.33,183.08L276.85,183.38L277.36,183.67L277.87,183.96L278.38,184.26L278.89,184.55L279.4,184.85L279.91,185.14L280.42,185.43L280.93,185.73L281.44,186.02L281.95,186.32L282.46,186.61L282.97,186.9L283.48,187.2L284,187.49L284.51,187.79L285.02,188.08L285.53,188.37L286.04,188.67L286.55,188.96L287.06,189.26L287.57,189.55L288.08,189.84L288.59,190.14L289.1,190.43L289.61,190.73L290.12,191.02L290.63,191.31L291.15,191.61L291.66,191.9L292.17,192.2L292.68,192.49L293.19,192.78L293.7,193.08L294.21,193.37L294.72,193.67L295.23,193.96L295.74,194.25L296.25,194.55L296.76,194.84L297.27,195.14L297.78,195.43L298.29,195.72L298.81,196.02L299.32,196.31L299.83,196.61L300.34,196.9L300.85,197.2L301.36,197.49L301.87,197.78L302.38,198.08L302.89,198.37L303.4,198.67L303.91,198.96L304.42,199.25L304.93,199.55L305.44,199.84L305.96,200.14L306.47,200.43L306.98,200.72L307.49,201.02L308,201.31L308.51,201.61L309.02,201.9L309.53,202.19L310.04,202.49L310.55,202.78L311.06,203.08L311.57,203.37L312.08,203.66L312.59,203.96L313.11,204.25L313.62,204.55L314.13,204.84L314.64,205.13L315.15,205.43L315.66,205.72L316.17,206.02L316.68,206.31L317.19,206.6L317.7,206.9L318.21,207.19L318.72,207.49L319.23,207.78L319.74,208.07L320.26,208.37L320.77,208.66L321.28,208.96L321.79,209.25L322.3,209.54L322.81,209.84L323.32,210.13L323.83,210.43L324.34,210.72L324.85,211.01L325.36,211.31L325.87,211.6L326.38,211.9L326.89,212.19L327.41,212.49L327.92,212.78L328.43,213.07L328.94,213.37L329.45,213.66L329.96,213.96L330.47,214.25L330.98,214.54L331.49,214.84L332,215.13L332.51,215.43L333.02,215.72L333.53,216.01L334.04,216.31L334.56,216.6L335.07,216.9L335.58,217.19L336.09,217.48L336.6,217.78L337.11,218.07L337.62,218.37L338.13,218.66L338.64,218.95L339.15,219.25L339.66,219.54L340.17,219.84L340.68,220.13L341.19,220.42L341.71,220.72L342.22,221.01L342.73,221.31L343.24,221.6L343.75,221.89L344.26,222.19L344.77,222.48L345.28,222.78L345.79,223.07L346.3,223.36L346.81,223.66L347.32,223.95L347.83,224.25L348.34,224.54L348.86,224.83L349.37,225.13L349.88,225.42L350.39,225.72L350.9,226.01L351.41,226.3L351.92,226.6L352.43,226.89L352.94,227.19L353.45,227.48L353.96,227.77L354.47,228.07L354.98,228.36L355.49,228.66L356.01,228.95L356.52,229.24L357.03,229.54L357.54,229.83L358.05,230.13L358.56,230.42L359.07,230.72L359.58,231.01L360.09,231.3L360.6,231.6L361.11,231.89L361.62,232.19L362.13,232.48L362.64,232.77L363.16,233.07L363.67,233.36L364.18,233.66L364.69,233.95L365.2,234.24L365.71,234.54L366.22,234.83L366.73,235.13L367.24,235.42L367.75,235.71L368.26,236.01L368.77,236.3L369.28,236.6L369.79,236.89L370.31,237.18L370.82,237.48L371.33,237.77L371.84,238.07L372.35,238.36L372.86,238.65L373.37,238.95L373.88,239.24L374.39,239.54L374.9,239.83L375.41,240.12L375.92,240.42L376.43,240.71L376.94,241.01L377.46,241.3L377.97,241.59L378.48,241.89L378.99,242.18L379.5,242.48L380.01,242.77L380.52,243.06L381.03,243.36L381.54,243.65L382.05,243.95L382.56,244.24L383.07,244.53L383.58,244.83L384.09,245.12L384.61,245.42L385.12,245.71L385.63,246L386.14,246.3L386.65,246.59L387.16,246.89L387.67,247.18L388.18,247.47L388.69,247.77L389.2,248.06L389.71,248.36L390.22,248.65L390.73,248.94L391.24,249.24L391.76,249.53L392.27,249.83L392.78,250.12L393.29,250.42L393.8,250.71L394.31,251L394.82,251.3L395.33,251.59L395.84,251.89L396.35,252.18L396.86,252.47L397.37,252.77L397.88,253.06L398.39,253.36L398.91,253.65L399.42,253.94L399.93,254.24L400.44,254.53L400.95,254.83L401.46,255.12L401.97,255.41L402.48,255.71L402.99,256L403.5,256.3L404.01,256.59L404.52,256.88L405.03,257.18L405.54,257.47L406.06,257.77L406.57,258.06L407.08,258.35L407.59,258.65L408.1,258.94L408.61,259.24L409.12,259.53L409.63,259.82L410.14,260.12L410.65,260.41L411.16,260.71L411.67,261L412.18,261.29L412.69,261.59L413.21,261.88L413.72,262.18L414.23,262.47L414.74,262.76L415.25,263.06L415.76,263.35L416.27,263.65L416.78,263.94L417.29,264.23L417.8,264.53L418.31,264.82L418.82,265.12L419.33,265.41L419.84,265.7L420.35,266L420.87,266.29L421.38,266.59L421.89,266.88L422.4,267.17L422.91,267.47L423.42,267.76L423.93,268.06L424.44,268.35L424.95,268.64L425.46,268.94L425.97,269.23L426.48,269.53L426.99,269.82L427.5,270.11L428.02,270.41L428.53,270.7L429.04,271L429.55,271.29L430.06,271.58L430.57,271.88L431.08,272.17L431.59,272.47L432.1,272.76L432.61,273.05L433.12,273.35L433.63,273.64L434.14,273.94L434.65,274.23L435.17,274.53L435.68,274.82L436.19,275.11L436.7,275.41L437.21,275.7L437.72,276L438.23,276.29L438.74,276.58L439.25,276.88L439.76,277.17L440.27,277.47L440.78,277.76L441.29,278.05L441.8,278.35L442.32,278.64L442.83,278.94L443.34,279.23L443.85,279.52L444.36,279.82L444.87,280.11L445.38,280.41L445.89,280.7L446.4,280.99L446.91,281.29L447.42,281.58L447.93,281.88L448.44,282.17L448.95,282.46L449.47,282.76L449.98,283.05L450.49,283.35L451,283.64L451.51,283.93L452.02,284.23L452.53,284.52L453.04,284.82L453.55,285.11L454.06,285.4L454.57,285.7L455.08,285.99L455.59,286.29L456.1,286.58L456.62,286.87L457.13,287.17L457.64,287.46L458.15,287.76L458.66,288.05L459.17,288.34L459.68,288.64L460.19,288.93L460.7,289.23L461.21,289.52L461.72,289.81L462.23,290.11L462.74,290.4L463.25,290.7L463.77,290.99L464.28,291.28L464.79,291.58L465.3,291.87L465.81,292.17L466.32,292.46L466.83,292.75L467.34,293.05L467.85,293.34L468.36,293.64L468.87,293.93L469.38,294.22L469.89,294.52L470.4,294.81L470.92,295.11L471.43,295.4L471.94,295.69L472.45,295.99L472.96,296.28L473.47,296.58L473.98,296.87L474.49,297.16L475,297.46L475.51,297.75L476.02,298.05L476.53,298.34L477.04,298.63L477.55,298.93L478.07,299.22L478.58,299.52L479.09,299.81L479.6,300.1L480.11,300.4L480.62,300.69L481.13,300.99L481.64,301.28L482.15,301.58L482.66,301.87L483.17,302.16L483.68,302.46L484.19,302.75L484.7,303.05L485.22,303.34L485.73,303.63L486.24,303.93L486.75,304.22L487.26,304.52L487.77,304.81L488.28,305.1L488.79,305.4L489.3,305.69L489.81,305.99L490.32,306.28L490.83,306.57L491.34,306.87L491.85,307.16L492.37,307.46L492.88,307.75L493.39,308.04L493.9,308.34L494.41,308.63L494.92,308.93L495.43,309.22L495.94,309.51L496.45,309.81L496.96,310.1L497.47,310.4L497.98,310.69L498.49,310.98L499,311.28L499.52,311.57L500.03,311.87L500.54,312.16L501.05,312.45L501.56,312.75L502.07,313.04L502.58,313.34L503.09,313.63L503.6,313.92L504.11,314.22L504.62,314.51L505.13,314.81L505.64,315.1L506.15,315.39L506.67,315.69L507.18,315.98L507.69,316.28L508.2,316.57L508.71,316.86L509.22,317.16L509.73,317.45L510.24,317.75L510.75,318.04L511.26,318.33L511.77,318.63L512.28,318.92L512.79,319.22L513.3,319.51L513.82,319.8L514.33,320.1L514.84,320.39L515.35,320.69L515.86,320.98L516.37,321.27L516.88,321.57L517.39,321.86L517.9,322.16L518.41,322.45L518.92,322.74L519.43,323.04L519.94,323.33L520.45,323.63L520.97,323.92L521.48,324.21L521.99,324.51L522.5,324.8L523.01,325.1L523.52,325.39L524.03,325.68L524.54,325.98L525.05,326.27L525.56,326.57L526.07,326.86L526.58,327.15L527.09,327.45L527.6,327.74L528.12,328.04L528.63,328.33L529.14,328.62L529.65,328.92L530.16,329.21L530.67,329.51L531.18,329.8L531.69,330.09L532.2,330.39L532.71,330.68L533.22,330.98L533.73,331.27L534.24,331.56L534.75,331.86L535.27,332.15L535.78,332.45L536.29,332.74L536.8,333.03L537.31,333.33L537.82,333.62L538.33,333.92L538.84,334.21L539.35,334.5L539.86,334.8L540.37,335.09L540.88,335.39L541.39,335.68L541.9,335.97L542.41,336.27L542.93,336.56L543.44,336.86L543.95,337.15L544.46,337.44L544.97,337.74L545.48,338.03L545.99,338.33L546.5,338.62L547.01,338.92L547.52,339.21L548.03,339.5L548.54,339.8L549.05,340.09L549.56,340.39L550.08,340.68L550.59,340.97L551.1,341.27L551.61,341.56L552.12,341.86L552.63,342.15L553.14,342.44L553.65,342.74L554.16,343.03L554.67,343.33L555.18,343.62L555.69,343.91L556.2,344.21L556.71,344.5L557.23,344.8L557.74,345.09L558.25,345.38L558.76,345.68L559.27,345.97L559.78,346.27L560.29,346.56L560.8,346.85L561.31,347.15L561.82,347.44L562.33,347.74L562.84,348.03L563.35,348.32L563.86,348.62L564.38,348.91L564.89,349.21L565.4,349.5L565.91,349.79L566.42,350.09L566.93,350.38" style="fill:none;stroke:#FF0000" />
<path d="M56.729,56.347L56.729,350.38" style="fill:none;stroke:#808080;stroke-width:0.25" />
<path d="M204.93,56.347L204.93,350.38" style="fill:none;stroke:#808080;stroke-width:0.25" />
<path d="M353.14,56.347L353.14,350.38" style="fill:none;stroke:#808080;stroke-width:0.25" />
<path d="M501.35,56.347L501.35,350.38" style="fill:none;stroke:#808080;stroke-width:0.25" />
<path d="M56.729,56.347L566.93,56.347" style="fill:none;stroke:#808080;stroke-width:0.25" />
<path d="M56.729,147.62L566.93,147.62" style="fill:none;stroke:#808080;stroke-width:0.25" />
<path d="M56.729,238.89L566.93,238.89" style="fill:none;stroke:#808080;stroke-width:0.25" />
<path d="M56.729,330.17L566.93,330.17" style="fill:none;stroke:#808080;stroke-width:0.25" />
</g>
</svg>
