<?xml version="1.0"?>
<!-- Generated by SVGo and Plotinum VG -->
<svg width="566.93pt" height="350.38pt" viewBox="0 0 566.93 350.38"
	xmlns="http://www.w3.org/2000/svg"
	xmlns:xlink="http://www.w3.org/1999/xlink">
<g transform="scale(1, -1) translate(0, -350.38)">
<path d="M0,0L566.93,0L566.93,350.38L0,350.38Z" style="fill:#FFFFFF" />
<text x="272.15" y="-15.879" transform="scale(1, -1)"
	style="font-family:Helvetica;font-weight:normal;font-style:normal;font-size:12px">f(x) = a + b*x*x</text>
<text x="150.47" y="-3.8789" transform="scale(1, -1)"
	style="font-family:Helvetica;font-weight:normal;font-style:normal;font-size:12px">f(x) = 19.567571778608617 + 1.3138199265887112e-07*x*x</text>
<text x="53.948" y="-30.997" transform="scale(1, -1)"
	style="font-family:Helvetica;font-weight:normal;font-style:normal;font-size:10px">0</text>
<text x="191.03" y="-30.997" transform="scale(1, -1)"
	style="font-family:Helvetica;font-weight:normal;font-style:normal;font-size:10px">40000</text>
<text x="339.24" y="-30.997" transform="scale(1, -1)"
	style="font-family:Helvetica;font-weight:normal;font-style:normal;font-size:10px">80000</text>
<text x="484.66" y="-30.997" transform="scale(1, -1)"
	style="font-family:Helvetica;font-weight:normal;font-style:normal;font-size:10px">120000</text>
<path d="M56.729,40.597L56.729,48.597" style="fill:none;stroke:#000000;stroke-width:0.5" />
<path d="M204.93,40.597L204.93,48.597" style="fill:none;stroke:#000000;stroke-width:0.5" />
<path d="M353.14,40.597L353.14,48.597" style="fill:none;stroke:#000000;stroke-width:0.5" />
<path d="M501.35,40.597L501.35,48.597" style="fill:none;stroke:#000000;stroke-width:0.5" />
<path d="M93.78,44.597L93.78,48.597" style="fill:none;stroke:#000000;stroke-width:0.5" />
<path d="M130.83,44.597L130.83,48.597" style="fill:none;stroke:#000000;stroke-width:0.5" />
<path d="M167.88,44.597L167.88,48.597" style="fill:none;stroke:#000000;stroke-width:0.5" />
<path d="M241.99,44.597L241.99,48.597" style="fill:none;stroke:#000000;stroke-width:0.5" />
<path d="M279.04,44.597L279.04,48.597" style="fill:none;stroke:#000000;stroke-width:0.5" />
<path d="M316.09,44.597L316.09,48.597" style="fill:none;stroke:#000000;stroke-width:0.5" />
<path d="M390.19,44.597L390.19,48.597" style="fill:none;stroke:#000000;stroke-width:0.5" />
<path d="M427.24,44.597L427.24,48.597" style="fill:none;stroke:#000000;stroke-width:0.5" />
<path d="M464.3,44.597L464.3,48.597" style="fill:none;stroke:#000000;stroke-width:0.5" />
<path d="M538.4,44.597L538.4,48.597" style="fill:none;stroke:#000000;stroke-width:0.5" />
<path d="M56.729,48.597L566.93,48.597" style="fill:none;stroke:#000000;stroke-width:0.5" />
<g transform="rotate(90)">
<text x="187.03" y="11.52" transform="scale(1, -1)"
	style="font-family:Helvetica;font-weight:normal;font-style:normal;font-size:12px">ms/op</text>
</g>
<text x="32.083" y="-51.647" transform="scale(1, -1)"
	style="font-family:Helvetica;font-weight:normal;font-style:normal;font-size:10px">0</text>
<text x="15.398" y="-168.76" transform="scale(1, -1)"
	style="font-family:Helvetica;font-weight:normal;font-style:normal;font-size:10px">1000</text>
<text x="15.398" y="-285.87" transform="scale(1, -1)"
	style="font-family:Helvetica;font-weight:normal;font-style:normal;font-size:10px">2000</text>
<path d="M40.423,56.347L48.423,56.347" style="fill:none;stroke:#000000;stroke-width:0.5" />
<path d="M40.423,173.46L48.423,173.46" style="fill:none;stroke:#000000;stroke-width:0.5" />
<path d="M40.423,290.57L48.423,290.57" style="fill:none;stroke:#000000;stroke-width:0.5" />
<path d="M44.423,79.769L48.423,79.769" style="fill:none;stroke:#000000;stroke-width:0.5" />
<path d="M44.423,103.19L48.423,103.19" style="fill:none;stroke:#000000;stroke-width:0.5" />
<path d="M44.423,126.61L48.423,126.61" style="fill:none;stroke:#000000;stroke-width:0.5" />
<path d="M44.423,150.04L48.423,150.04" style="fill:none;stroke:#000000;stroke-width:0.5" />
<path d="M44.423,196.88L48.423,196.88" style="fill:none;stroke:#000000;stroke-width:0.5" />
<path d="M44.423,220.3L48.423,220.3" style="fill:none;stroke:#000000;stroke-width:0.5" />
<path d="M44.423,243.72L48.423,243.72" style="fill:none;stroke:#000000;stroke-width:0.5" />
<path d="M44.423,267.15L48.423,267.15" style="fill:none;stroke:#000000;stroke-width:0.5" />
<path d="M44.423,313.99L48.423,313.99" style="fill:none;stroke:#000000;stroke-width:0.5" />
<path d="M44.423,337.41L48.423,337.41" style="fill:none;stroke:#000000;stroke-width:0.5" />
<path d="M48.423,56.347L48.423,350.38" style="fill:none;stroke:#000000;stroke-width:0.5" />
<path d="M54.961,54.579L58.496,58.114" style="fill:none;stroke:#0000FF;stroke-width:0.5" />
<path d="M54.961,58.114L58.496,54.579" style="fill:none;stroke:#0000FF;stroke-width:0.5" />
<path d="M54.961,54.579L58.496,58.114" style="fill:none;stroke:#0000FF;stroke-width:0.5" />
<path d="M54.961,58.114L58.496,54.579" style="fill:none;stroke:#0000FF;stroke-width:0.5" />
<path d="M54.961,54.579L58.496,58.114" style="fill:none;stroke:#0000FF;stroke-width:0.5" />
<path d="M54.961,58.114L58.496,54.579" style="fill:none;stroke:#0000FF;stroke-width:0.5" />
<path d="M54.961,54.579L58.496,58.114" style="fill:none;stroke:#0000FF;stroke-width:0.5" />
<path d="M54.961,58.114L58.496,54.579" style="fill:none;stroke:#0000FF;stroke-width:0.5" />
<path d="M54.961,54.579L58.496,58.114" style="fill:none;stroke:#0000FF;stroke-width:0.5" />
<path d="M54.961,58.114L58.496,54.579" style="fill:none;stroke:#0000FF;stroke-width:0.5" />
<path d="M54.961,54.579L58.496,58.114" style="fill:none;stroke:#0000FF;stroke-width:0.5" />
<path d="M54.961,58.114L58.496,54.579" style="fill:none;stroke:#0000FF;stroke-width:0.5" />
<path d="M54.961,54.579L58.496,58.114" style="fill:none;stroke:#0000FF;stroke-width:0.5" />
<path d="M54.961,58.114L58.496,54.579" style="fill:none;stroke:#0000FF;stroke-width:0.5" />
<path d="M54.961,54.579L58.496,58.114" style="fill:none;stroke:#0000FF;stroke-width:0.5" />
<path d="M54.961,58.114L58.496,54.579" style="fill:none;stroke:#0000FF;stroke-width:0.5" />
<path d="M54.961,54.579L58.496,58.114" style="fill:none;stroke:#0000FF;stroke-width:0.5" />
<path d="M54.961,58.114L58.496,54.579" style="fill:none;stroke:#0000FF;stroke-width:0.5" />
<path d="M54.961,54.579L58.496,58.114" style="fill:none;stroke:#0000FF;stroke-width:0.5" />
<path d="M54.961,58.114L58.496,54.579" style="fill:none;stroke:#0000FF;stroke-width:0.5" />
<path d="M54.961,54.579L58.496,58.114" style="fill:none;stroke:#0000FF;stroke-width:0.5" />
<path d="M54.961,58.114L58.496,54.579" style="fill:none;stroke:#0000FF;stroke-width:0.5" />
<path d="M54.961,54.579L58.496,58.114" style="fill:none;stroke:#0000FF;stroke-width:0.5" />
<path d="M54.961,58.114L58.496,54.579" style="fill:none;stroke:#0000FF;stroke-width:0.5" />
<path d="M54.961,54.579L58.496,58.114" style="fill:none;stroke:#0000FF;stroke-width:0.5" />
<path d="M54.961,58.114L58.496,54.579" style="fill:none;stroke:#0000FF;stroke-width:0.5" />
<path d="M54.961,54.579L58.496,58.114" style="fill:none;stroke:#0000FF;stroke-width:0.5" />
<path d="M54.961,58.114L58.496,54.579" style="fill:none;stroke:#0000FF;stroke-width:0.5" />
<path d="M54.961,54.579L58.496,58.114" style="fill:none;stroke:#0000FF;stroke-width:0.5" />
<path d="M54.961,58.114L58.496,54.579" style="fill:none;stroke:#0000FF;stroke-width:0.5" />
<path d="M54.961,54.579L58.496,58.114" style="fill:none;stroke:#0000FF;stroke-width:0.5" />
<path d="M54.961,58.114L58.496,54.579" style="fill:none;stroke:#0000FF;stroke-width:0.5" />
<path d="M54.961,54.579L58.496,58.114" style="fill:none;stroke:#0000FF;stroke-width:0.5" />
<path d="M54.961,58.114L58.496,54.579" style="fill:none;stroke:#0000FF;stroke-width:0.5" />
<path d="M54.961,54.579L58.496,58.114" style="fill:none;stroke:#0000FF;stroke-width:0.5" />
<path d="M54.961,58.114L58.496,54.579" style="fill:none;stroke:#0000FF;stroke-width:0.5" />
<path d="M54.961,54.579L58.496,58.114" style="fill:none;stroke:#0000FF;stroke-width:0.5" />
<path d="M54.961,58.114L58.496,54.579" style="fill:none;stroke:#0000FF;stroke-width:0.5" />
<path d="M54.961,54.579L58.496,58.114" style="fill:none;stroke:#0000FF;stroke-width:0.5" />
<path d="M54.961,58.114L58.496,54.579" style="fill:none;stroke:#0000FF;stroke-width:0.5" />
<path d="M54.961,54.579L58.496,58.114" style="fill:none;stroke:#0000FF;stroke-width:0.5" />
<path d="M54.961,58.114L58.496,54.579" style="fill:none;stroke:#0000FF;stroke-width:0.5" />
<path d="M54.961,54.579L58.496,58.114" style="fill:none;stroke:#0000FF;stroke-width:0.5" />
<path d="M54.961,58.114L58.496,54.579" style="fill:none;stroke:#0000FF;stroke-width:0.5" />
<path d="M54.961,54.579L58.496,58.114" style="fill:none;stroke:#0000FF;stroke-width:0.5" />
<path d="M54.961,58.114L58.496,54.579" style="fill:none;stroke:#0000FF;stroke-width:0.5" />
<path d="M54.961,54.579L58.496,58.114" style="fill:none;stroke:#0000FF;stroke-width:0.5" />
<path d="M54.961,58.114L58.496,54.579" style="fill:none;stroke:#0000FF;stroke-width:0.5" />
<path d="M54.961,54.579L58.496,58.114" style="fill:none;stroke:#0000FF;stroke-width:0.5" />
<path d="M54.961,58.114L58.496,54.579" style="fill:none;stroke:#0000FF;stroke-width:0.5" />
<path d="M54.961,54.579L58.496,58.114" style="fill:none;stroke:#0000FF;stroke-width:0.5" />
<path d="M54.961,58.114L58.496,54.579" style="fill:none;stroke:#0000FF;stroke-width:0.5" />
<path d="M54.961,54.579L58.496,58.114" style="fill:none;stroke:#0000FF;stroke-width:0.5" />
<path d="M54.961,58.114L58.496,54.579" style="fill:none;stroke:#0000FF;stroke-width:0.5" />
<path d="M54.961,54.579L58.496,58.114" style="fill:none;stroke:#0000FF;stroke-width:0.5" />
<path d="M54.961,58.114L58.496,54.579" style="fill:none;stroke:#0000FF;stroke-width:0.5" />
<path d="M54.961,54.579L58.496,58.114" style="fill:none;stroke:#0000FF;stroke-width:0.5" />
<path d="M54.961,58.114L58.496,54.579" style="fill:none;stroke:#0000FF;stroke-width:0.5" />
<path d="M54.961,54.579L58.496,58.114" style="fill:none;stroke:#0000FF;stroke-width:0.5" />
<path d="M54.961,58.114L58.496,54.579" style="fill:none;stroke:#0000FF;stroke-width:0.5" />
<path d="M54.961,54.579L58.496,58.114" style="fill:none;stroke:#0000FF;stroke-width:0.5" />
<path d="M54.961,58.114L58.496,54.579" style="fill:none;stroke:#0000FF;stroke-width:0.5" />
<path d="M54.961,54.579L58.496,58.114" style="fill:none;stroke:#0000FF;stroke-width:0.5" />
<path d="M54.961,58.114L58.496,54.579" style="fill:none;stroke:#0000FF;stroke-width:0.5" />
<path d="M54.961,54.579L58.496,58.114" style="fill:none;stroke:#0000FF;stroke-width:0.5" />
<path d="M54.961,58.114L58.496,54.579" style="fill:none;stroke:#0000FF;stroke-width:0.5" />
<path d="M54.961,54.579L58.496,58.114" style="fill:none;stroke:#0000FF;stroke-width:0.5" />
<path d="M54.961,58.114L58.496,54.579" style="fill:none;stroke:#0000FF;stroke-width:0.5" />
<path d="M54.961,54.579L58.496,58.114" style="fill:none;stroke:#0000FF;stroke-width:0.5" />
<path d="M54.961,58.114L58.496,54.579" style="fill:none;stroke:#0000FF;stroke-width:0.5" />
<path d="M54.961,54.579L58.496,58.114" style="fill:none;stroke:#0000FF;stroke-width:0.5" />
<path d="M54.961,58.114L58.496,54.579" style="fill:none;stroke:#0000FF;stroke-width:0.5" />
<path d="M54.961,54.579L58.496,58.114" style="fill:none;stroke:#0000FF;stroke-width:0.5" />
<path d="M54.961,58.114L58.496,54.579" style="fill:none;stroke:#0000FF;stroke-width:0.5" />
<path d="M54.961,54.579L58.496,58.114" style="fill:none;stroke:#0000FF;stroke-width:0.5" />
<path d="M54.961,58.114L58.496,54.579" style="fill:none;stroke:#0000FF;stroke-width:0.5" />
<path d="M54.961,54.579L58.496,58.114" style="fill:none;stroke:#0000FF;stroke-width:0.5" />
<path d="M54.961,58.114L58.496,54.579" style="fill:none;stroke:#0000FF;stroke-width:0.5" />
<path d="M54.961,54.579L58.496,58.114" style="fill:none;stroke:#0000FF;stroke-width:0.5" />
<path d="M54.961,58.114L58.496,54.579" style="fill:none;stroke:#0000FF;stroke-width:0.5" />
<path d="M54.961,54.579L58.496,58.114" style="fill:none;stroke:#0000FF;stroke-width:0.5" />
<path d="M54.961,58.114L58.496,54.579" style="fill:none;stroke:#0000FF;stroke-width:0.5" />
<path d="M54.961,54.579L58.496,58.114" style="fill:none;stroke:#0000FF;stroke-width:0.5" />
<path d="M54.961,58.114L58.496,54.579" style="fill:none;stroke:#0000FF;stroke-width:0.5" />
<path d="M54.961,54.579L58.496,58.114" style="fill:none;stroke:#0000FF;stroke-width:0.5" />
<path d="M54.961,58.114L58.496,54.579" style="fill:none;stroke:#0000FF;stroke-width:0.5" />
<path d="M54.961,54.579L58.496,58.114" style="fill:none;stroke:#0000FF;stroke-width:0.5" />
<path d="M54.961,58.114L58.496,54.579" style="fill:none;stroke:#0000FF;stroke-width:0.5" />
<path d="M54.961,54.579L58.496,58.114" style="fill:none;stroke:#0000FF;stroke-width:0.5" />
<path d="M54.961,58.114L58.496,54.579" style="fill:none;stroke:#0000FF;stroke-width:0.5" />
<path d="M54.961,54.579L58.496,58.114" style="fill:none;stroke:#0000FF;stroke-width:0.5" />
<path d="M54.961,58.114L58.496,54.579" style="fill:none;stroke:#0000FF;stroke-width:0.5" />
<path d="M54.961,54.579L58.496,58.114" style="fill:none;stroke:#0000FF;stroke-width:0.5" />
<path d="M54.961,58.114L58.496,54.579" style="fill:none;stroke:#0000FF;stroke-width:0.5" />
<path d="M54.961,54.579L58.496,58.114" style="fill:none;stroke:#0000FF;stroke-width:0.5" />
<path d="M54.961,58.114L58.496,54.579" style="fill:none;stroke:#0000FF;stroke-width:0.5" />
<path d="M54.961,54.579L58.496,58.114" style="fill:none;stroke:#0000FF;stroke-width:0.5" />
<path d="M54.961,58.114L58.496,54.579" style="fill:none;stroke:#0000FF;stroke-width:0.5" />
<path d="M54.961,54.579L58.496,58.114" style="fill:none;stroke:#0000FF;stroke-width:0.5" />
<path d="M54.961,58.114L58.496,54.579" style="fill:none;stroke:#0000FF;stroke-width:0.5" />
<path d="M54.961,54.579L58.496,58.114" style="fill:none;stroke:#0000FF;stroke-width:0.5" />
<path d="M54.961,58.114L58.496,54.579" style="fill:none;stroke:#0000FF;stroke-width:0.5" />
<path d="M54.961,54.579L58.496,58.114" style="fill:none;stroke:#0000FF;stroke-width:0.5" />
<path d="M54.961,58.114L58.496,54.579" style="fill:none;stroke:#0000FF;stroke-width:0.5" />
<path d="M54.961,54.579L58.496,58.114" style="fill:none;stroke:#0000FF;stroke-width:0.5" />
<path d="M54.961,58.114L58.496,54.579" style="fill:none;stroke:#0000FF;stroke-width:0.5" />
<path d="M54.961,54.579L58.496,58.114" style="fill:none;stroke:#0000FF;stroke-width:0.5" />
<path d="M54.961,58.114L58.496,54.579" style="fill:none;stroke:#0000FF;stroke-width:0.5" />
<path d="M54.961,54.579L58.496,58.114" style="fill:none;stroke:#0000FF;stroke-width:0.5" />
<path d="M54.961,58.114L58.496,54.579" style="fill:none;stroke:#0000FF;stroke-width:0.5" />
<path d="M54.961,54.579L58.496,58.114" style="fill:none;stroke:#0000FF;stroke-width:0.5" />
<path d="M54.961,58.114L58.496,54.579" style="fill:none;stroke:#0000FF;stroke-width:0.5" />
<path d="M54.961,54.579L58.496,58.114" style="fill:none;stroke:#0000FF;stroke-width:0.5" />
<path d="M54.961,58.114L58.496,54.579" style="fill:none;stroke:#0000FF;stroke-width:0.5" />
<path d="M54.961,54.579L58.496,58.114" style="fill:none;stroke:#0000FF;stroke-width:0.5" />
<path d="M54.961,58.114L58.496,54.579" style="fill:none;stroke:#0000FF;stroke-width:0.5" />
<path d="M54.961,54.579L58.496,58.114" style="fill:none;stroke:#0000FF;stroke-width:0.5" />
<path d="M54.961,58.114L58.496,54.579" style="fill:none;stroke:#0000FF;stroke-width:0.5" />
<path d="M54.961,54.579L58.496,58.114" style="fill:none;stroke:#0000FF;stroke-width:0.5" />
<path d="M54.961,58.114L58.496,54.579" style="fill:none;stroke:#0000FF;stroke-width:0.5" />
<path d="M54.961,54.579L58.496,58.114" style="fill:none;stroke:#0000FF;stroke-width:0.5" />
<path d="M54.961,58.114L58.496,54.579" style="fill:none;stroke:#0000FF;stroke-width:0.5" />
<path d="M54.961,54.579L58.496,58.114" style="fill:none;stroke:#0000FF;stroke-width:0.5" />
<path d="M54.961,58.114L58.496,54.579" style="fill:none;stroke:#0000FF;stroke-width:0.5" />
<path d="M54.961,54.579L58.496,58.114" style="fill:none;stroke:#0000FF;stroke-width:0.5" />
<path d="M54.961,58.114L58.496,54.579" style="fill:none;stroke:#0000FF;stroke-width:0.5" />
<path d="M54.961,54.579L58.496,58.114" style="fill:none;stroke:#0000FF;stroke-width:0.5" />
<path d="M54.961,58.114L58.496,54.579" style="fill:none;stroke:#0000FF;stroke-width:0.5" />
<path d="M54.961,54.579L58.496,58.114" style="fill:none;stroke:#0000FF;stroke-width:0.5" />
<path d="M54.961,58.114L58.496,54.579" style="fill:none;stroke:#0000FF;stroke-width:0.5" />
<path d="M54.961,54.579L58.496,58.114" style="fill:none;stroke:#0000FF;stroke-width:0.5" />
<path d="M54.961,58.114L58.496,54.579" style="fill:none;stroke:#0000FF;stroke-width:0.5" />
<path d="M54.961,54.579L58.496,58.114" style="fill:none;stroke:#0000FF;stroke-width:0.5" />
<path d="M54.961,58.114L58.496,54.579" style="fill:none;stroke:#0000FF;stroke-width:0.5" />
<path d="M54.961,54.579L58.496,58.114" style="fill:none;stroke:#0000FF;stroke-width:0.5" />
<path d="M54.961,58.114L58.496,54.579" style="fill:none;stroke:#0000FF;stroke-width:0.5" />
<path d="M54.961,54.579L58.496,58.114" style="fill:none;stroke:#0000FF;stroke-width:0.5" />
<path d="M54.961,58.114L58.496,54.579" style="fill:none;stroke:#0000FF;stroke-width:0.5" />
<path d="M54.961,54.579L58.496,58.114" style="fill:none;stroke:#0000FF;stroke-width:0.5" />
<path d="M54.961,58.114L58.496,54.579" style="fill:none;stroke:#0000FF;stroke-width:0.5" />
<path d="M54.961,54.579L58.496,58.114" style="fill:none;stroke:#0000FF;stroke-width:0.5" />
<path d="M54.961,58.114L58.496,54.579" style="fill:none;stroke:#0000FF;stroke-width:0.5" />
<path d="M54.961,54.579L58.496,58.114" style="fill:none;stroke:#0000FF;stroke-width:0.5" />
<path d="M54.961,58.114L58.496,54.579" style="fill:none;stroke:#0000FF;stroke-width:0.5" />
<path d="M54.961,54.579L58.496,58.114" style="fill:none;stroke:#0000FF;stroke-width:0.5" />
<path d="M54.961,58.114L58.496,54.579" style="fill:none;stroke:#0000FF;stroke-width:0.5" />
<path d="M54.961,54.579L58.496,58.114" style="fill:none;stroke:#0000FF;stroke-width:0.5" />
<path d="M54.961,58.114L58.496,54.579" style="fill:none;stroke:#0000FF;stroke-width:0.5" />
<path d="M54.961,54.579L58.496,58.114" style="fill:none;stroke:#0000FF;stroke-width:0.5" />
<path d="M54.961,58.114L58.496,54.579" style="fill:none;stroke:#0000FF;stroke-width:0.5" />
<path d="M54.961,54.579L58.496,58.114" style="fill:none;stroke:#0000FF;stroke-width:0.5" />
<path d="M54.961,58.114L58.496,54.579" style="fill:none;stroke:#0000FF;stroke-width:0.5" />
<path d="M54.961,54.579L58.496,58.114" style="fill:none;stroke:#0000FF;stroke-width:0.5" />
<path d="M54.961,58.114L58.496,54.579" style="fill:none;stroke:#0000FF;stroke-width:0.5" />
<path d="M54.961,54.579L58.496,58.114" style="fill:none;stroke:#0000FF;stroke-width:0.5" />
<path d="M54.961,58.114L58.496,54.579" style="fill:none;stroke:#0000FF;stroke-width:0.5" />
<path d="M54.961,54.579L58.496,58.114" style="fill:none;stroke:#0000FF;stroke-width:0.5" />
<path d="M54.961,58.114L58.496,54.579" style="fill:none;stroke:#0000FF;stroke-width:0.5" />
<path d="M54.961,54.579L58.496,58.114" style="fill:none;stroke:#0000FF;stroke-width:0.5" />
<path d="M54.961,58.114L58.496,54.579" style="fill:none;stroke:#0000FF;stroke-width:0.5" />
<path d="M54.961,54.579L58.496,58.114" style="fill:none;stroke:#0000FF;stroke-width:0.5" />
<path d="M54.961,58.114L58.496,54.579" style="fill:none;stroke:#0000FF;stroke-width:0.5" />
<path d="M54.961,54.579L58.496,58.114" style="fill:none;stroke:#0000FF;stroke-width:0.5" />
<path d="M54.961,58.114L58.496,54.579" style="fill:none;stroke:#0000FF;stroke-width:0.5" />
<path d="M54.961,54.579L58.496,58.114" style="fill:none;stroke:#0000FF;stroke-width:0.5" />
<path d="M54.961,58.114L58.496,54.579" style="fill:none;stroke:#0000FF;stroke-width:0.5" />
<path d="M54.961,54.579L58.496,58.114" style="fill:none;stroke:#0000FF;stroke-width:0.5" />
<path d="M54.961,58.114L58.496,54.579" style="fill:none;stroke:#0000FF;stroke-width:0.5" />
<path d="M54.961,54.579L58.496,58.114" style="fill:none;stroke:#0000FF;stroke-width:0.5" />
<path d="M54.961,58.114L58.496,54.579" style="fill:none;stroke:#0000FF;stroke-width:0.5" />
<path d="M54.961,54.579L58.496,58.114" style="fill:none;stroke:#0000FF;stroke-width:0.5" />
<path d="M54.961,58.114L58.496,54.579" style="fill:none;stroke:#0000FF;stroke-width:0.5" />
<path d="M54.961,54.579L58.496,58.114" style="fill:none;stroke:#0000FF;stroke-width:0.5" />
<path d="M54.961,58.114L58.496,54.579" style="fill:none;stroke:#0000FF;stroke-width:0.5" />
<path d="M54.961,54.579L58.496,58.114" style="fill:none;stroke:#0000FF;stroke-width:0.5" />
<path d="M54.961,58.114L58.496,54.579" style="fill:none;stroke:#0000FF;stroke-width:0.5" />
<path d="M54.961,54.579L58.496,58.114" style="fill:none;stroke:#0000FF;stroke-width:0.5" />
<path d="M54.961,58.114L58.496,54.579" style="fill:none;stroke:#0000FF;stroke-width:0.5" />
<path d="M54.961,54.579L58.496,58.114" style="fill:none;stroke:#0000FF;stroke-width:0.5" />
<path d="M54.961,58.114L58.496,54.579" style="fill:none;stroke:#0000FF;stroke-width:0.5" />
<path d="M54.961,54.579L58.496,58.114" style="fill:none;stroke:#0000FF;stroke-width:0.5" />
<path d="M54.961,58.114L58.496,54.579" style="fill:none;stroke:#0000FF;stroke-width:0.5" />
<path d="M54.961,54.579L58.496,58.114" style="fill:none;stroke:#0000FF;stroke-width:0.5" />
<path d="M54.961,58.114L58.496,54.579" style="fill:none;stroke:#0000FF;stroke-width:0.5" />
<path d="M54.961,54.579L58.496,58.114" style="fill:none;stroke:#0000FF;stroke-width:0.5" />
<path d="M54.961,58.114L58.496,54.579" style="fill:none;stroke:#0000FF;stroke-width:0.5" />
<path d="M54.961,54.579L58.496,58.114" style="fill:none;stroke:#0000FF;stroke-width:0.5" />
<path d="M54.961,58.114L58.496,54.579" style="fill:none;stroke:#0000FF;stroke-width:0.5" />
<path d="M54.961,54.579L58.496,58.114" style="fill:none;stroke:#0000FF;stroke-width:0.5" />
<path d="M54.961,58.114L58.496,54.579" style="fill:none;stroke:#0000FF;stroke-width:0.5" />
<path d="M54.961,54.579L58.496,58.114" style="fill:none;stroke:#0000FF;stroke-width:0.5" />
<path d="M54.961,58.114L58.496,54.579" style="fill:none;stroke:#0000FF;stroke-width:0.5" />
<path d="M54.961,54.579L58.496,58.114" style="fill:none;stroke:#0000FF;stroke-width:0.5" />
<path d="M54.961,58.114L58.496,54.579" style="fill:none;stroke:#0000FF;stroke-width:0.5" />
<path d="M54.961,54.579L58.496,58.114" style="fill:none;stroke:#0000FF;stroke-width:0.5" />
<path d="M54.961,58.114L58.496,54.579" style="fill:none;stroke:#0000FF;stroke-width:0.5" />
<path d="M54.961,54.579L58.496,58.114" style="fill:none;stroke:#0000FF;stroke-width:0.5" />
<path d="M54.961,58.114L58.496,54.579" style="fill:none;stroke:#0000FF;stroke-width:0.5" />
<path d="M54.961,54.579L58.496,58.114" style="fill:none;stroke:#0000FF;stroke-width:0.5" />
<path d="M54.961,58.114L58.496,54.579" style="fill:none;stroke:#0000FF;stroke-width:0.5" />
<path d="M54.961,54.579L58.496,58.114" style="fill:none;stroke:#0000FF;stroke-width:0.5" />
<path d="M54.961,58.114L58.496,54.579" style="fill:none;stroke:#0000FF;stroke-width:0.5" />
<path d="M54.961,54.579L58.496,58.114" style="fill:none;stroke:#0000FF;stroke-width:0.5" />
<path d="M54.961,58.114L58.496,54.579" style="fill:none;stroke:#0000FF;stroke-width:0.5" />
<path d="M54.961,54.579L58.496,58.114" style="fill:none;stroke:#0000FF;stroke-width:0.5" />
<path d="M54.961,58.114L58.496,54.579" style="fill:none;stroke:#0000FF;stroke-width:0.5" />
<path d="M54.961,54.579L58.496,58.114" style="fill:none;stroke:#0000FF;stroke-width:0.5" />
<path d="M54.961,58.114L58.496,54.579" style="fill:none;stroke:#0000FF;stroke-width:0.5" />
<path d="M54.961,54.579L58.496,58.114" style="fill:none;stroke:#0000FF;stroke-width:0.5" />
<path d="M54.961,58.114L58.496,54.579" style="fill:none;stroke:#0000FF;stroke-width:0.5" />
<path d="M54.961,54.579L58.496,58.114" style="fill:none;stroke:#0000FF;stroke-width:0.5" />
<path d="M54.961,58.114L58.496,54.579" style="fill:none;stroke:#0000FF;stroke-width:0.5" />
<path d="M54.961,54.579L58.496,58.114" style="fill:none;stroke:#0000FF;stroke-width:0.5" />
<path d="M54.961,58.114L58.496,54.579" style="fill:none;stroke:#0000FF;stroke-width:0.5" />
<path d="M54.961,54.579L58.496,58.114" style="fill:none;stroke:#0000FF;stroke-width:0.5" />
<path d="M54.961,58.114L58.496,54.579" style="fill:none;stroke:#0000FF;stroke-width:0.5" />
<path d="M54.961,54.579L58.496,58.114" style="fill:none;stroke:#0000FF;stroke-width:0.5" />
<path d="M54.961,58.114L58.496,54.579" style="fill:none;stroke:#0000FF;stroke-width:0.5" />
<path d="M54.961,54.579L58.496,58.114" style="fill:none;stroke:#0000FF;stroke-width:0.5" />
<path d="M54.961,58.114L58.496,54.579" style="fill:none;stroke:#0000FF;stroke-width:0.5" />
<path d="M54.961,54.579L58.496,58.114" style="fill:none;stroke:#0000FF;stroke-width:0.5" />
<path d="M54.961,58.114L58.496,54.579" style="fill:none;stroke:#0000FF;stroke-width:0.5" />
<path d="M54.961,54.579L58.496,58.114" style="fill:none;stroke:#0000FF;stroke-width:0.5" />
<path d="M54.961,58.114L58.496,54.579" style="fill:none;stroke:#0000FF;stroke-width:0.5" />
<path d="M54.961,54.579L58.496,58.114" style="fill:none;stroke:#0000FF;stroke-width:0.5" />
<path d="M54.961,58.114L58.496,54.579" style="fill:none;stroke:#0000FF;stroke-width:0.5" />
<path d="M54.961,54.579L58.496,58.114" style="fill:none;stroke:#0000FF;stroke-width:0.5" />
<path d="M54.961,58.114L58.496,54.579" style="fill:none;stroke:#0000FF;stroke-width:0.5" />
<path d="M54.961,54.579L58.496,58.114" style="fill:none;stroke:#0000FF;stroke-width:0.5" />
<path d="M54.961,58.114L58.496,54.579" style="fill:none;stroke:#0000FF;stroke-width:0.5" />
<path d="M54.961,54.579L58.496,58.114" style="fill:none;stroke:#0000FF;stroke-width:0.5" />
<path d="M54.961,58.114L58.496,54.579" style="fill:none;stroke:#0000FF;stroke-width:0.5" />
<path d="M54.961,54.579L58.496,58.114" style="fill:none;stroke:#0000FF;stroke-width:0.5" />
<path d="M54.961,58.114L58.496,54.579" style="fill:none;stroke:#0000FF;stroke-width:0.5" />
<path d="M54.961,54.579L58.496,58.114" style="fill:none;stroke:#0000FF;stroke-width:0.5" />
<path d="M54.961,58.114L58.496,54.579" style="fill:none;stroke:#0000FF;stroke-width:0.5" />
<path d="M54.961,54.579L58.496,58.114" style="fill:none;stroke:#0000FF;stroke-width:0.5" />
<path d="M54.961,58.114L58.496,54.579" style="fill:none;stroke:#0000FF;stroke-width:0.5" />
<path d="M54.961,54.579L58.496,58.114" style="fill:none;stroke:#0000FF;stroke-width:0.5" />
<path d="M54.961,58.114L58.496,54.579" style="fill:none;stroke:#0000FF;stroke-width:0.5" />
<path d="M54.961,54.579L58.496,58.114" style="fill:none;stroke:#0000FF;stroke-width:0.5" />
<path d="M54.961,58.114L58.496,54.579" style="fill:none;stroke:#0000FF;stroke-width:0.5" />
<path d="M54.961,54.579L58.496,58.114" style="fill:none;stroke:#0000FF;stroke-width:0.5" />
<path d="M54.961,58.114L58.496,54.579" style="fill:none;stroke:#0000FF;stroke-width:0.5" />
<path d="M54.961,54.579L58.496,58.114" style="fill:none;stroke:#0000FF;stroke-width:0.5" />
<path d="M54.961,58.114L58.496,54.579" style="fill:none;stroke:#0000FF;stroke-width:0.5" />
<path d="M54.961,54.579L58.496,58.114" style="fill:none;stroke:#0000FF;stroke-width:0.5" />
<path d="M54.961,58.114L58.496,54.579" style="fill:none;stroke:#0000FF;stroke-width:0.5" />
<path d="M54.961,54.579L58.496,58.114" style="fill:none;stroke:#0000FF;stroke-width:0.5" />
<path d="M54.961,58.114L58.496,54.579" style="fill:none;stroke:#0000FF;stroke-width:0.5" />
<path d="M54.961,54.579L58.496,58.114" style="fill:none;stroke:#0000FF;stroke-width:0.5" />
<path d="M54.961,58.114L58.496,54.579" style="fill:none;stroke:#0000FF;stroke-width:0.5" />
<path d="M54.961,54.579L58.496,58.114" style="fill:none;stroke:#0000FF;stroke-width:0.5" />
<path d="M54.961,58.114L58.496,54.579" style="fill:none;stroke:#0000FF;stroke-width:0.5" />
<path d="M54.961,54.579L58.496,58.114" style="fill:none;stroke:#0000FF;stroke-width:0.5" />
<path d="M54.961,58.114L58.496,54.579" style="fill:none;stroke:#0000FF;stroke-width:0.5" />
<path d="M54.961,54.579L58.496,58.114" style="fill:none;stroke:#0000FF;stroke-width:0.5" />
<path d="M54.961,58.114L58.496,54.579" style="fill:none;stroke:#0000FF;stroke-width:0.5" />
<path d="M54.961,54.579L58.496,58.114" style="fill:none;stroke:#0000FF;stroke-width:0.5" />
<path d="M54.961,58.114L58.496,54.579" style="fill:none;stroke:#0000FF;stroke-width:0.5" />
<path d="M54.961,54.579L58.496,58.114" style="fill:none;stroke:#0000FF;stroke-width:0.5" />
<path d="M54.961,58.114L58.496,54.579" style="fill:none;stroke:#0000FF;stroke-width:0.5" />
<path d="M54.961,54.579L58.496,58.114" style="fill:none;stroke:#0000FF;stroke-width:0.5" />
<path d="M54.961,58.114L58.496,54.579" style="fill:none;stroke:#0000FF;stroke-width:0.5" />
<path d="M62.001,57.215L65.536,60.751" style="fill:none;stroke:#0000FF;stroke-width:0.5" />
<path d="M62.001,60.751L65.536,57.215" style="fill:none;stroke:#0000FF;stroke-width:0.5" />
<path d="M71.263,59.021L74.799,62.557" style="fill:none;stroke:#0000FF;stroke-width:0.5" />
<path d="M71.263,62.557L74.799,59.021" style="fill:none;stroke:#0000FF;stroke-width:0.5" />
<path d="M240.22,102.25L243.75,105.79" style="fill:none;stroke:#0000FF;stroke-width:0.5" />
<path d="M240.22,105.79L243.75,102.25" style="fill:none;stroke:#0000FF;stroke-width:0.5" />
<path d="M84.602,61.833L88.138,65.368" style="fill:none;stroke:#0000FF;stroke-width:0.5" />
<path d="M84.602,65.368L88.138,61.833" style="fill:none;stroke:#0000FF;stroke-width:0.5" />
<path d="M87.566,62.261L91.102,65.796" style="fill:none;stroke:#0000FF;stroke-width:0.5" />
<path d="M87.566,65.796L91.102,62.261" style="fill:none;stroke:#0000FF;stroke-width:0.5" />
<path d="M314.32,115.07L317.86,118.6" style="fill:none;stroke:#0000FF;stroke-width:0.5" />
<path d="M314.32,118.6L317.86,115.07" style="fill:none;stroke:#0000FF;stroke-width:0.5" />
<path d="M318.03,113.93L321.56,117.47" style="fill:none;stroke:#0000FF;stroke-width:0.5" />
<path d="M318.03,117.47L321.56,113.93" style="fill:none;stroke:#0000FF;stroke-width:0.5" />
<path d="M84.232,61.578L87.767,65.114" style="fill:none;stroke:#0000FF;stroke-width:0.5" />
<path d="M84.232,65.114L87.767,61.578" style="fill:none;stroke:#0000FF;stroke-width:0.5" />
<path d="M85.343,61.926L88.879,65.462" style="fill:none;stroke:#0000FF;stroke-width:0.5" />
<path d="M85.343,65.462L88.879,61.926" style="fill:none;stroke:#0000FF;stroke-width:0.5" />
<path d="M54.961,54.732L58.496,58.268" style="fill:none;stroke:#0000FF;stroke-width:0.5" />
<path d="M54.961,58.268L58.496,54.732" style="fill:none;stroke:#0000FF;stroke-width:0.5" />
<path d="M74.228,59.341L77.763,62.876" style="fill:none;stroke:#0000FF;stroke-width:0.5" />
<path d="M74.228,62.876L77.763,59.341" style="fill:none;stroke:#0000FF;stroke-width:0.5" />
<path d="M79.044,60.943L82.58,64.478" style="fill:none;stroke:#0000FF;stroke-width:0.5" />
<path d="M79.044,64.478L82.58,60.943" style="fill:none;stroke:#0000FF;stroke-width:0.5" />
<path d="M273.57,118.14L277.1,121.68" style="fill:none;stroke:#0000FF;stroke-width:0.5" />
<path d="M273.57,121.68L277.1,118.14" style="fill:none;stroke:#0000FF;stroke-width:0.5" />
<path d="M83.861,61.513L87.397,65.048" style="fill:none;stroke:#0000FF;stroke-width:0.5" />
<path d="M83.861,65.048L87.397,61.513" style="fill:none;stroke:#0000FF;stroke-width:0.5" />
<path d="M86.825,62.105L90.361,65.641" style="fill:none;stroke:#0000FF;stroke-width:0.5" />
<path d="M86.825,65.641L90.361,62.105" style="fill:none;stroke:#0000FF;stroke-width:0.5" />
<path d="M90.53,62.975L94.066,66.511" style="fill:none;stroke:#0000FF;stroke-width:0.5" />
<path d="M90.53,66.511L94.066,62.975" style="fill:none;stroke:#0000FF;stroke-width:0.5" />
<path d="M90.901,63.243L94.436,66.779" style="fill:none;stroke:#0000FF;stroke-width:0.5" />
<path d="M90.901,66.779L94.436,63.243" style="fill:none;stroke:#0000FF;stroke-width:0.5" />
<path d="M61.63,56.946L65.166,60.481" style="fill:none;stroke:#0000FF;stroke-width:0.5" />
<path d="M61.63,60.481L65.166,56.946" style="fill:none;stroke:#0000FF;stroke-width:0.5" />
<path d="M73.487,59.603L77.022,63.138" style="fill:none;stroke:#0000FF;stroke-width:0.5" />
<path d="M73.487,63.138L77.022,59.603" style="fill:none;stroke:#0000FF;stroke-width:0.5" />
<path d="M77.562,60.17L81.098,63.706" style="fill:none;stroke:#0000FF;stroke-width:0.5" />
<path d="M77.562,63.706L81.098,60.17" style="fill:none;stroke:#0000FF;stroke-width:0.5" />
<path d="M80.897,61.566L84.432,65.102" style="fill:none;stroke:#0000FF;stroke-width:0.5" />
<path d="M80.897,65.102L84.432,61.566" style="fill:none;stroke:#0000FF;stroke-width:0.5" />
<path d="M84.973,61.958L88.508,65.494" style="fill:none;stroke:#0000FF;stroke-width:0.5" />
<path d="M84.973,65.494L88.508,61.958" style="fill:none;stroke:#0000FF;stroke-width:0.5" />
<path d="M69.781,58.804L73.317,62.339" style="fill:none;stroke:#0000FF;stroke-width:0.5" />
<path d="M69.781,62.339L73.317,58.804" style="fill:none;stroke:#0000FF;stroke-width:0.5" />
<path d="M76.08,59.84L79.616,63.375" style="fill:none;stroke:#0000FF;stroke-width:0.5" />
<path d="M76.08,63.375L79.616,59.84" style="fill:none;stroke:#0000FF;stroke-width:0.5" />
<path d="M91.642,63.268L95.177,66.803" style="fill:none;stroke:#0000FF;stroke-width:0.5" />
<path d="M91.642,66.803L95.177,63.268" style="fill:none;stroke:#0000FF;stroke-width:0.5" />
<path d="M269.86,108.55L273.4,112.08" style="fill:none;stroke:#0000FF;stroke-width:0.5" />
<path d="M269.86,112.08L273.4,108.55" style="fill:none;stroke:#0000FF;stroke-width:0.5" />
<path d="M288.39,104.03L291.92,107.56" style="fill:none;stroke:#0000FF;stroke-width:0.5" />
<path d="M288.39,107.56L291.92,104.03" style="fill:none;stroke:#0000FF;stroke-width:0.5" />
<path d="M61.26,56.973L64.795,60.509" style="fill:none;stroke:#0000FF;stroke-width:0.5" />
<path d="M61.26,60.509L64.795,56.973" style="fill:none;stroke:#0000FF;stroke-width:0.5" />
<path d="M71.634,59.266L75.17,62.802" style="fill:none;stroke:#0000FF;stroke-width:0.5" />
<path d="M71.634,62.802L75.17,59.266" style="fill:none;stroke:#0000FF;stroke-width:0.5" />
<path d="M284.68,105.61L288.22,109.14" style="fill:none;stroke:#0000FF;stroke-width:0.5" />
<path d="M284.68,109.14L288.22,105.61" style="fill:none;stroke:#0000FF;stroke-width:0.5" />
<path d="M355.08,127.86L358.61,131.39" style="fill:none;stroke:#0000FF;stroke-width:0.5" />
<path d="M355.08,131.39L358.61,127.86" style="fill:none;stroke:#0000FF;stroke-width:0.5" />
<path d="M65.706,58.091L69.241,61.627" style="fill:none;stroke:#0000FF;stroke-width:0.5" />
<path d="M65.706,61.627L69.241,58.091" style="fill:none;stroke:#0000FF;stroke-width:0.5" />
<path d="M83.49,61.611L87.026,65.147" style="fill:none;stroke:#0000FF;stroke-width:0.5" />
<path d="M83.49,65.147L87.026,61.611" style="fill:none;stroke:#0000FF;stroke-width:0.5" />
<path d="M85.714,61.966L89.249,65.502" style="fill:none;stroke:#0000FF;stroke-width:0.5" />
<path d="M85.714,65.502L89.249,61.966" style="fill:none;stroke:#0000FF;stroke-width:0.5" />
<path d="M251.33,99.45L254.87,102.99" style="fill:none;stroke:#0000FF;stroke-width:0.5" />
<path d="M251.33,102.99L254.87,99.45" style="fill:none;stroke:#0000FF;stroke-width:0.5" />
<path d="M266.15,108.93L269.69,112.47" style="fill:none;stroke:#0000FF;stroke-width:0.5" />
<path d="M266.15,112.47L269.69,108.93" style="fill:none;stroke:#0000FF;stroke-width:0.5" />
<path d="M70.893,59.036L74.428,62.572" style="fill:none;stroke:#0000FF;stroke-width:0.5" />
<path d="M70.893,62.572L74.428,59.036" style="fill:none;stroke:#0000FF;stroke-width:0.5" />
<path d="M72.375,59.296L75.911,62.831" style="fill:none;stroke:#0000FF;stroke-width:0.5" />
<path d="M72.375,62.831L75.911,59.296" style="fill:none;stroke:#0000FF;stroke-width:0.5" />
<path d="M91.271,63.919L94.807,67.455" style="fill:none;stroke:#0000FF;stroke-width:0.5" />
<path d="M91.271,67.455L94.807,63.919" style="fill:none;stroke:#0000FF;stroke-width:0.5" />
<path d="M72.746,59.411L76.281,62.946" style="fill:none;stroke:#0000FF;stroke-width:0.5" />
<path d="M72.746,62.946L76.281,59.411" style="fill:none;stroke:#0000FF;stroke-width:0.5" />
<path d="M258.74,234.18L262.28,237.71" style="fill:none;stroke:#0000FF;stroke-width:0.5" />
<path d="M258.74,237.71L262.28,234.18" style="fill:none;stroke:#0000FF;stroke-width:0.5" />
<path d="M343.96,183.77L347.5,187.3" style="fill:none;stroke:#0000FF;stroke-width:0.5" />
<path d="M343.96,187.3L347.5,183.77" style="fill:none;stroke:#0000FF;stroke-width:0.5" />
<path d="M89.419,63.326L92.954,66.861" style="fill:none;stroke:#0000FF;stroke-width:0.5" />
<path d="M89.419,66.861L92.954,63.326" style="fill:none;stroke:#0000FF;stroke-width:0.5" />
<path d="M306.91,131.34L310.45,134.87" style="fill:none;stroke:#0000FF;stroke-width:0.5" />
<path d="M306.91,134.87L310.45,131.34" style="fill:none;stroke:#0000FF;stroke-width:0.5" />
<path d="M57.184,55.943L60.719,59.478" style="fill:none;stroke:#0000FF;stroke-width:0.5" />
<path d="M57.184,59.478L60.719,55.943" style="fill:none;stroke:#0000FF;stroke-width:0.5" />
<path d="M59.407,56.874L62.942,60.41" style="fill:none;stroke:#0000FF;stroke-width:0.5" />
<path d="M59.407,60.41L62.942,56.874" style="fill:none;stroke:#0000FF;stroke-width:0.5" />
<path d="M60.148,56.842L63.684,60.378" style="fill:none;stroke:#0000FF;stroke-width:0.5" />
<path d="M60.148,60.378L63.684,56.842" style="fill:none;stroke:#0000FF;stroke-width:0.5" />
<path d="M66.076,57.856L69.612,61.391" style="fill:none;stroke:#0000FF;stroke-width:0.5" />
<path d="M66.076,61.391L69.612,57.856" style="fill:none;stroke:#0000FF;stroke-width:0.5" />
<path d="M81.267,61.656L84.803,65.191" style="fill:none;stroke:#0000FF;stroke-width:0.5" />
<path d="M81.267,65.191L84.803,61.656" style="fill:none;stroke:#0000FF;stroke-width:0.5" />
<path d="M64.224,57.885L67.759,61.421" style="fill:none;stroke:#0000FF;stroke-width:0.5" />
<path d="M64.224,61.421L67.759,57.885" style="fill:none;stroke:#0000FF;stroke-width:0.5" />
<path d="M80.526,60.897L84.062,64.433" style="fill:none;stroke:#0000FF;stroke-width:0.5" />
<path d="M80.526,64.433L84.062,60.897" style="fill:none;stroke:#0000FF;stroke-width:0.5" />
<path d="M247.63,96.536L251.16,100.07" style="fill:none;stroke:#0000FF;stroke-width:0.5" />
<path d="M247.63,100.07L251.16,96.536" style="fill:none;stroke:#0000FF;stroke-width:0.5" />
<path d="M325.44,131.92L328.97,135.46" style="fill:none;stroke:#0000FF;stroke-width:0.5" />
<path d="M325.44,135.46L328.97,131.92" style="fill:none;stroke:#0000FF;stroke-width:0.5" />
<path d="M60.518,56.744L64.054,60.28" style="fill:none;stroke:#0000FF;stroke-width:0.5" />
<path d="M60.518,60.28L64.054,56.744" style="fill:none;stroke:#0000FF;stroke-width:0.5" />
<path d="M70.522,59.029L74.058,62.565" style="fill:none;stroke:#0000FF;stroke-width:0.5" />
<path d="M70.522,62.565L74.058,59.029" style="fill:none;stroke:#0000FF;stroke-width:0.5" />
<path d="M80.156,61.17L83.691,64.706" style="fill:none;stroke:#0000FF;stroke-width:0.5" />
<path d="M80.156,64.706L83.691,61.17" style="fill:none;stroke:#0000FF;stroke-width:0.5" />
<path d="M82.379,61.476L85.914,65.011" style="fill:none;stroke:#0000FF;stroke-width:0.5" />
<path d="M82.379,65.011L85.914,61.476" style="fill:none;stroke:#0000FF;stroke-width:0.5" />
<path d="M243.92,98.319L247.46,101.85" style="fill:none;stroke:#0000FF;stroke-width:0.5" />
<path d="M243.92,101.85L247.46,98.319" style="fill:none;stroke:#0000FF;stroke-width:0.5" />
<path d="M62.742,57.397L66.277,60.932" style="fill:none;stroke:#0000FF;stroke-width:0.5" />
<path d="M62.742,60.932L66.277,57.397" style="fill:none;stroke:#0000FF;stroke-width:0.5" />
<path d="M88.307,62.079L91.843,65.615" style="fill:none;stroke:#0000FF;stroke-width:0.5" />
<path d="M88.307,65.615L91.843,62.079" style="fill:none;stroke:#0000FF;stroke-width:0.5" />
<path d="M73.116,60.19L76.652,63.726" style="fill:none;stroke:#0000FF;stroke-width:0.5" />
<path d="M73.116,63.726L76.652,60.19" style="fill:none;stroke:#0000FF;stroke-width:0.5" />
<path d="M73.857,59.698L77.393,63.234" style="fill:none;stroke:#0000FF;stroke-width:0.5" />
<path d="M73.857,63.234L77.393,59.698" style="fill:none;stroke:#0000FF;stroke-width:0.5" />
<path d="M74.969,59.361L78.504,62.897" style="fill:none;stroke:#0000FF;stroke-width:0.5" />
<path d="M74.969,62.897L78.504,59.361" style="fill:none;stroke:#0000FF;stroke-width:0.5" />
<path d="M76.821,60.156L80.357,63.692" style="fill:none;stroke:#0000FF;stroke-width:0.5" />
<path d="M76.821,63.692L80.357,60.156" style="fill:none;stroke:#0000FF;stroke-width:0.5" />
<path d="M86.084,62.115L89.62,65.651" style="fill:none;stroke:#0000FF;stroke-width:0.5" />
<path d="M86.084,65.651L89.62,62.115" style="fill:none;stroke:#0000FF;stroke-width:0.5" />
<path d="M89.789,63.321L93.325,66.856" style="fill:none;stroke:#0000FF;stroke-width:0.5" />
<path d="M89.789,66.856L93.325,63.321" style="fill:none;stroke:#0000FF;stroke-width:0.5" />
<path d="M64.965,57.805L68.5,61.341" style="fill:none;stroke:#0000FF;stroke-width:0.5" />
<path d="M64.965,61.341L68.5,57.805" style="fill:none;stroke:#0000FF;stroke-width:0.5" />
<path d="M351.37,114.7L354.91,118.23" style="fill:none;stroke:#0000FF;stroke-width:0.5" />
<path d="M351.37,118.23L354.91,114.7" style="fill:none;stroke:#0000FF;stroke-width:0.5" />
<path d="M57.925,56.189L61.46,59.724" style="fill:none;stroke:#0000FF;stroke-width:0.5" />
<path d="M57.925,59.724L61.46,56.189" style="fill:none;stroke:#0000FF;stroke-width:0.5" />
<path d="M66.447,57.9L69.982,61.435" style="fill:none;stroke:#0000FF;stroke-width:0.5" />
<path d="M66.447,61.435L69.982,57.9" style="fill:none;stroke:#0000FF;stroke-width:0.5" />
<path d="M74.598,59.366L78.134,62.902" style="fill:none;stroke:#0000FF;stroke-width:0.5" />
<path d="M74.598,62.902L78.134,59.366" style="fill:none;stroke:#0000FF;stroke-width:0.5" />
<path d="M89.048,62.93L92.584,66.465" style="fill:none;stroke:#0000FF;stroke-width:0.5" />
<path d="M89.048,66.465L92.584,62.93" style="fill:none;stroke:#0000FF;stroke-width:0.5" />
<path d="M67.558,58.749L71.094,62.284" style="fill:none;stroke:#0000FF;stroke-width:0.5" />
<path d="M67.558,62.284L71.094,58.749" style="fill:none;stroke:#0000FF;stroke-width:0.5" />
<path d="M77.192,60.103L80.727,63.639" style="fill:none;stroke:#0000FF;stroke-width:0.5" />
<path d="M77.192,63.639L80.727,60.103" style="fill:none;stroke:#0000FF;stroke-width:0.5" />
<path d="M77.933,61.651L81.468,65.187" style="fill:none;stroke:#0000FF;stroke-width:0.5" />
<path d="M77.933,65.187L81.468,61.651" style="fill:none;stroke:#0000FF;stroke-width:0.5" />
<path d="M79.785,61.081L83.321,64.616" style="fill:none;stroke:#0000FF;stroke-width:0.5" />
<path d="M79.785,64.616L83.321,61.081" style="fill:none;stroke:#0000FF;stroke-width:0.5" />
<path d="M86.455,62.281L89.99,65.817" style="fill:none;stroke:#0000FF;stroke-width:0.5" />
<path d="M86.455,65.817L89.99,62.281" style="fill:none;stroke:#0000FF;stroke-width:0.5" />
<path d="M82.008,61.668L85.544,65.204" style="fill:none;stroke:#0000FF;stroke-width:0.5" />
<path d="M82.008,65.204L85.544,61.668" style="fill:none;stroke:#0000FF;stroke-width:0.5" />
<path d="M59.777,57.434L63.313,60.969" style="fill:none;stroke:#0000FF;stroke-width:0.5" />
<path d="M59.777,60.969L63.313,57.434" style="fill:none;stroke:#0000FF;stroke-width:0.5" />
<path d="M65.335,57.792L68.871,61.327" style="fill:none;stroke:#0000FF;stroke-width:0.5" />
<path d="M65.335,61.327L68.871,57.792" style="fill:none;stroke:#0000FF;stroke-width:0.5" />
<path d="M69.411,58.69L72.946,62.225" style="fill:none;stroke:#0000FF;stroke-width:0.5" />
<path d="M69.411,62.225L72.946,58.69" style="fill:none;stroke:#0000FF;stroke-width:0.5" />
<path d="M75.71,59.563L79.245,63.099" style="fill:none;stroke:#0000FF;stroke-width:0.5" />
<path d="M75.71,63.099L79.245,59.563" style="fill:none;stroke:#0000FF;stroke-width:0.5" />
<path d="M76.451,60.325L79.986,63.861" style="fill:none;stroke:#0000FF;stroke-width:0.5" />
<path d="M76.451,63.861L79.986,60.325" style="fill:none;stroke:#0000FF;stroke-width:0.5" />
<path d="M68.299,58.65L71.835,62.185" style="fill:none;stroke:#0000FF;stroke-width:0.5" />
<path d="M68.299,62.185L71.835,58.65" style="fill:none;stroke:#0000FF;stroke-width:0.5" />
<path d="M70.152,58.822L73.687,62.358" style="fill:none;stroke:#0000FF;stroke-width:0.5" />
<path d="M70.152,62.358L73.687,58.822" style="fill:none;stroke:#0000FF;stroke-width:0.5" />
<path d="M332.85,171.14L336.38,174.68" style="fill:none;stroke:#0000FF;stroke-width:0.5" />
<path d="M332.85,174.68L336.38,171.14" style="fill:none;stroke:#0000FF;stroke-width:0.5" />
<path d="M63.112,57.452L66.648,60.987" style="fill:none;stroke:#0000FF;stroke-width:0.5" />
<path d="M63.112,60.987L66.648,57.452" style="fill:none;stroke:#0000FF;stroke-width:0.5" />
<path d="M67.929,58.419L71.464,61.954" style="fill:none;stroke:#0000FF;stroke-width:0.5" />
<path d="M67.929,61.954L71.464,58.419" style="fill:none;stroke:#0000FF;stroke-width:0.5" />
<path d="M72.004,59.218L75.54,62.753" style="fill:none;stroke:#0000FF;stroke-width:0.5" />
<path d="M72.004,62.753L75.54,59.218" style="fill:none;stroke:#0000FF;stroke-width:0.5" />
<path d="M262.45,103.42L265.99,106.96" style="fill:none;stroke:#0000FF;stroke-width:0.5" />
<path d="M262.45,106.96L265.99,103.42" style="fill:none;stroke:#0000FF;stroke-width:0.5" />
<path d="M321.73,137.37L325.27,140.91" style="fill:none;stroke:#0000FF;stroke-width:0.5" />
<path d="M321.73,140.91L325.27,137.37" style="fill:none;stroke:#0000FF;stroke-width:0.5" />
<path d="M329.14,126.9L332.68,130.43" style="fill:none;stroke:#0000FF;stroke-width:0.5" />
<path d="M329.14,130.43L332.68,126.9" style="fill:none;stroke:#0000FF;stroke-width:0.5" />
<path d="M340.26,145.95L343.79,149.49" style="fill:none;stroke:#0000FF;stroke-width:0.5" />
<path d="M340.26,149.49L343.79,145.95" style="fill:none;stroke:#0000FF;stroke-width:0.5" />
<path d="M57.554,55.897L61.09,59.433" style="fill:none;stroke:#0000FF;stroke-width:0.5" />
<path d="M57.554,59.433L61.09,55.897" style="fill:none;stroke:#0000FF;stroke-width:0.5" />
<path d="M64.594,57.625L68.13,61.16" style="fill:none;stroke:#0000FF;stroke-width:0.5" />
<path d="M64.594,61.16L68.13,57.625" style="fill:none;stroke:#0000FF;stroke-width:0.5" />
<path d="M79.415,60.95L82.95,64.486" style="fill:none;stroke:#0000FF;stroke-width:0.5" />
<path d="M79.415,64.486L82.95,60.95" style="fill:none;stroke:#0000FF;stroke-width:0.5" />
<path d="M83.12,61.608L86.656,65.144" style="fill:none;stroke:#0000FF;stroke-width:0.5" />
<path d="M83.12,65.144L86.656,61.608" style="fill:none;stroke:#0000FF;stroke-width:0.5" />
<path d="M303.21,140.26L306.74,143.8" style="fill:none;stroke:#0000FF;stroke-width:0.5" />
<path d="M303.21,143.8L306.74,140.26" style="fill:none;stroke:#0000FF;stroke-width:0.5" />
<path d="M88.678,62.451L92.213,65.987" style="fill:none;stroke:#0000FF;stroke-width:0.5" />
<path d="M88.678,65.987L92.213,62.451" style="fill:none;stroke:#0000FF;stroke-width:0.5" />
<path d="M299.5,170.74L303.04,174.28" style="fill:none;stroke:#0000FF;stroke-width:0.5" />
<path d="M299.5,174.28L303.04,170.74" style="fill:none;stroke:#0000FF;stroke-width:0.5" />
<path d="M347.67,115.71L351.2,119.25" style="fill:none;stroke:#0000FF;stroke-width:0.5" />
<path d="M347.67,119.25L351.2,115.71" style="fill:none;stroke:#0000FF;stroke-width:0.5" />
<path d="M55.331,55.497L58.867,59.033" style="fill:none;stroke:#0000FF;stroke-width:0.5" />
<path d="M55.331,59.033L58.867,55.497" style="fill:none;stroke:#0000FF;stroke-width:0.5" />
<path d="M58.295,56.187L61.831,59.722" style="fill:none;stroke:#0000FF;stroke-width:0.5" />
<path d="M58.295,59.722L61.831,56.187" style="fill:none;stroke:#0000FF;stroke-width:0.5" />
<path d="M60.889,57.165L64.425,60.7" style="fill:none;stroke:#0000FF;stroke-width:0.5" />
<path d="M60.889,60.7L64.425,57.165" style="fill:none;stroke:#0000FF;stroke-width:0.5" />
<path d="M63.483,58.077L67.018,61.612" style="fill:none;stroke:#0000FF;stroke-width:0.5" />
<path d="M63.483,61.612L67.018,58.077" style="fill:none;stroke:#0000FF;stroke-width:0.5" />
<path d="M63.853,57.785L67.389,61.32" style="fill:none;stroke:#0000FF;stroke-width:0.5" />
<path d="M63.853,61.32L67.389,57.785" style="fill:none;stroke:#0000FF;stroke-width:0.5" />
<path d="M56.443,55.692L59.978,59.227" style="fill:none;stroke:#0000FF;stroke-width:0.5" />
<path d="M56.443,59.227L59.978,55.692" style="fill:none;stroke:#0000FF;stroke-width:0.5" />
<path d="M56.072,55.613L59.608,59.149" style="fill:none;stroke:#0000FF;stroke-width:0.5" />
<path d="M56.072,59.149L59.608,55.613" style="fill:none;stroke:#0000FF;stroke-width:0.5" />
<path d="M67.188,59.473L70.723,63.008" style="fill:none;stroke:#0000FF;stroke-width:0.5" />
<path d="M67.188,63.008L70.723,59.473" style="fill:none;stroke:#0000FF;stroke-width:0.5" />
<path d="M81.638,61.192L85.173,64.727" style="fill:none;stroke:#0000FF;stroke-width:0.5" />
<path d="M81.638,64.727L85.173,61.192" style="fill:none;stroke:#0000FF;stroke-width:0.5" />
<path d="M87.937,62.535L91.472,66.071" style="fill:none;stroke:#0000FF;stroke-width:0.5" />
<path d="M87.937,66.071L91.472,62.535" style="fill:none;stroke:#0000FF;stroke-width:0.5" />
<path d="M280.98,108.62L284.51,112.16" style="fill:none;stroke:#0000FF;stroke-width:0.5" />
<path d="M280.98,112.16L284.51,108.62" style="fill:none;stroke:#0000FF;stroke-width:0.5" />
<path d="M55.702,55.565L59.237,59.1" style="fill:none;stroke:#0000FF;stroke-width:0.5" />
<path d="M55.702,59.1L59.237,55.565" style="fill:none;stroke:#0000FF;stroke-width:0.5" />
<path d="M66.817,57.944L70.353,61.479" style="fill:none;stroke:#0000FF;stroke-width:0.5" />
<path d="M66.817,61.479L70.353,57.944" style="fill:none;stroke:#0000FF;stroke-width:0.5" />
<path d="M75.339,59.55L78.875,63.086" style="fill:none;stroke:#0000FF;stroke-width:0.5" />
<path d="M75.339,63.086L78.875,59.55" style="fill:none;stroke:#0000FF;stroke-width:0.5" />
<path d="M90.16,62.512L93.695,66.047" style="fill:none;stroke:#0000FF;stroke-width:0.5" />
<path d="M90.16,66.047L93.695,62.512" style="fill:none;stroke:#0000FF;stroke-width:0.5" />
<path d="M255.04,99.679L258.57,103.21" style="fill:none;stroke:#0000FF;stroke-width:0.5" />
<path d="M255.04,103.21L258.57,99.679" style="fill:none;stroke:#0000FF;stroke-width:0.5" />
<path d="M310.62,115.82L314.15,119.35" style="fill:none;stroke:#0000FF;stroke-width:0.5" />
<path d="M310.62,119.35L314.15,115.82" style="fill:none;stroke:#0000FF;stroke-width:0.5" />
<path d="M56.813,55.838L60.349,59.373" style="fill:none;stroke:#0000FF;stroke-width:0.5" />
<path d="M56.813,59.373L60.349,55.838" style="fill:none;stroke:#0000FF;stroke-width:0.5" />
<path d="M58.666,56.017L62.201,59.553" style="fill:none;stroke:#0000FF;stroke-width:0.5" />
<path d="M58.666,59.553L62.201,56.017" style="fill:none;stroke:#0000FF;stroke-width:0.5" />
<path d="M59.036,56.757L62.572,60.293" style="fill:none;stroke:#0000FF;stroke-width:0.5" />
<path d="M59.036,60.293L62.572,56.757" style="fill:none;stroke:#0000FF;stroke-width:0.5" />
<path d="M82.749,61.433L86.285,64.968" style="fill:none;stroke:#0000FF;stroke-width:0.5" />
<path d="M82.749,64.968L86.285,61.433" style="fill:none;stroke:#0000FF;stroke-width:0.5" />
<path d="M87.196,62.192L90.731,65.728" style="fill:none;stroke:#0000FF;stroke-width:0.5" />
<path d="M87.196,65.728L90.731,62.192" style="fill:none;stroke:#0000FF;stroke-width:0.5" />
<path d="M69.04,58.777L72.576,62.313" style="fill:none;stroke:#0000FF;stroke-width:0.5" />
<path d="M69.04,62.313L72.576,58.777" style="fill:none;stroke:#0000FF;stroke-width:0.5" />
<path d="M78.674,60.829L82.209,64.364" style="fill:none;stroke:#0000FF;stroke-width:0.5" />
<path d="M78.674,64.364L82.209,60.829" style="fill:none;stroke:#0000FF;stroke-width:0.5" />
<path d="M292.09,118.32L295.63,121.85" style="fill:none;stroke:#0000FF;stroke-width:0.5" />
<path d="M292.09,121.85L295.63,118.32" style="fill:none;stroke:#0000FF;stroke-width:0.5" />
<path d="M336.55,140.91L340.09,144.45" style="fill:none;stroke:#0000FF;stroke-width:0.5" />
<path d="M336.55,144.45L340.09,140.91" style="fill:none;stroke:#0000FF;stroke-width:0.5" />
<path d="M62.371,57.217L65.907,60.752" style="fill:none;stroke:#0000FF;stroke-width:0.5" />
<path d="M62.371,60.752L65.907,57.217" style="fill:none;stroke:#0000FF;stroke-width:0.5" />
<path d="M68.67,58.542L72.205,62.078" style="fill:none;stroke:#0000FF;stroke-width:0.5" />
<path d="M68.67,62.078L72.205,58.542" style="fill:none;stroke:#0000FF;stroke-width:0.5" />
<path d="M78.303,61.366L81.839,64.901" style="fill:none;stroke:#0000FF;stroke-width:0.5" />
<path d="M78.303,64.901L81.839,61.366" style="fill:none;stroke:#0000FF;stroke-width:0.5" />
<path d="M277.27,156.24L280.81,159.78" style="fill:none;stroke:#0000FF;stroke-width:0.5" />
<path d="M277.27,159.78L280.81,156.24" style="fill:none;stroke:#0000FF;stroke-width:0.5" />
<path d="M295.8,115.75L299.33,119.29" style="fill:none;stroke:#0000FF;stroke-width:0.5" />
<path d="M295.8,119.29L299.33,115.75" style="fill:none;stroke:#0000FF;stroke-width:0.5" />
<path d="M56.729,58.638L57.239,58.639L57.75,58.639L58.261,58.641L58.771,58.643L59.282,58.646L59.793,58.649L60.303,58.653L60.814,58.657L61.325,58.662L61.836,58.667L62.346,58.674L62.857,58.68L63.368,58.688L63.878,58.696L64.389,58.704L64.9,58.713L65.411,58.723L65.921,58.733L66.432,58.744L66.943,58.755L67.453,58.767L67.964,58.78L68.475,58.793L68.986,58.807L69.496,58.821L70.007,58.836L70.518,58.851L71.028,58.867L71.539,58.884L72.05,58.901L72.561,58.919L73.071,58.938L73.582,58.957L74.093,58.976L74.603,58.996L75.114,59.017L75.625,59.038L76.136,59.06L76.646,59.083L77.157,59.106L77.668,59.13L78.178,59.154L78.689,59.179L79.2,59.204L79.711,59.23L80.221,59.257L80.732,59.284L81.243,59.312L81.753,59.34L82.264,59.369L82.775,59.399L83.286,59.429L83.796,59.459L84.307,59.491L84.818,59.523L85.328,59.555L85.839,59.588L86.35,59.622L86.86,59.656L87.371,59.691L87.882,59.726L88.393,59.762L88.903,59.799L89.414,59.836L89.925,59.873L90.435,59.912L90.946,59.951L91.457,59.99L91.968,60.03L92.478,60.071L92.989,60.112L93.5,60.154L94.01,60.196L94.521,60.239L95.032,60.283L95.543,60.327L96.053,60.371L96.564,60.417L97.075,60.463L97.585,60.509L98.096,60.556L98.607,60.604L99.118,60.652L99.628,60.701L100.14,60.75L100.65,60.8L101.16,60.851L101.67,60.902L102.18,60.954L102.69,61.006L103.2,61.059L103.71,61.113L104.22,61.167L104.74,61.221L105.25,61.277L105.76,61.332L106.27,61.389L106.78,61.446L107.29,61.503L107.8,61.562L108.31,61.62L108.82,61.68L109.33,61.74L109.84,61.8L110.35,61.861L110.86,61.923L111.37,61.985L111.89,62.048L112.4,62.111L112.91,62.175L113.42,62.24L113.93,62.305L114.44,62.371L114.95,62.437L115.46,62.504L115.97,62.572L116.48,62.64L116.99,62.709L117.5,62.778L118.01,62.848L118.52,62.918L119.04,62.989L119.55,63.061L120.06,63.133L120.57,63.206L121.08,63.279L121.59,63.353L122.1,63.428L122.61,63.503L123.12,63.579L123.63,63.655L124.14,63.732L124.65,63.809L125.16,63.887L125.67,63.966L126.19,64.045L126.7,64.125L127.21,64.205L127.72,64.286L128.23,64.368L128.74,64.45L129.25,64.533L129.76,64.616L130.27,64.7L130.78,64.784L131.29,64.87L131.8,64.955L132.31,65.041L132.82,65.128L133.34,65.216L133.85,65.304L134.36,65.392L134.87,65.481L135.38,65.571L135.89,65.661L136.4,65.752L136.91,65.844L137.42,65.936L137.93,66.029L138.44,66.122L138.95,66.216L139.46,66.31L139.97,66.405L140.49,66.501L141,66.597L141.51,66.694L142.02,66.791L142.53,66.889L143.04,66.987L143.55,67.087L144.06,67.186L144.57,67.286L145.08,67.387L145.59,67.489L146.1,67.591L146.61,67.693L147.12,67.797L147.64,67.9L148.15,68.005L148.66,68.11L149.17,68.215L149.68,68.321L150.19,68.428L150.7,68.535L151.21,68.643L151.72,68.752L152.23,68.861L152.74,68.97L153.25,69.08L153.76,69.191L154.27,69.303L154.79,69.415L155.3,69.527L155.81,69.64L156.32,69.754L156.83,69.868L157.34,69.983L157.85,70.099L158.36,70.215L158.87,70.331L159.38,70.449L159.89,70.566L160.4,70.685L160.91,70.804L161.42,70.923L161.94,71.043L162.45,71.164L162.96,71.286L163.47,71.407L163.98,71.53L164.49,71.653L165,71.777L165.51,71.901L166.02,72.026L166.53,72.151L167.04,72.277L167.55,72.404L168.06,72.531L168.57,72.659L169.09,72.787L169.6,72.916L170.11,73.045L170.62,73.175L171.13,73.306L171.64,73.437L172.15,73.569L172.66,73.702L173.17,73.835L173.68,73.968L174.19,74.102L174.7,74.237L175.21,74.372L175.72,74.508L176.23,74.645L176.75,74.782L177.26,74.92L177.77,75.058L178.28,75.197L178.79,75.336L179.3,75.476L179.81,75.617L180.32,75.758L180.83,75.9L181.34,76.042L181.85,76.185L182.36,76.329L182.87,76.473L183.38,76.618L183.9,76.763L184.41,76.909L184.92,77.055L185.43,77.202L185.94,77.35L186.45,77.498L186.96,77.647L187.47,77.796L187.98,77.946L188.49,78.097L189,78.248L189.51,78.4L190.02,78.552L190.53,78.705L191.05,78.858L191.56,79.012L192.07,79.167L192.58,79.322L193.09,79.478L193.6,79.634L194.11,79.791L194.62,79.949L195.13,80.107L195.64,80.266L196.15,80.425L196.66,80.585L197.17,80.746L197.68,80.907L198.2,81.068L198.71,81.23L199.22,81.393L199.73,81.557L200.24,81.721L200.75,81.885L201.26,82.05L201.77,82.216L202.28,82.383L202.79,82.549L203.3,82.717L203.81,82.885L204.32,83.054L204.83,83.223L205.35,83.393L205.86,83.563L206.37,83.734L206.88,83.906L207.39,84.078L207.9,84.251L208.41,84.424L208.92,84.598L209.43,84.773L209.94,84.948L210.45,85.123L210.96,85.3L211.47,85.477L211.98,85.654L212.5,85.832L213.01,86.011L213.52,86.19L214.03,86.37L214.54,86.55L215.05,86.731L215.56,86.912L216.07,87.095L216.58,87.277L217.09,87.461L217.6,87.644L218.11,87.829L218.62,88.014L219.13,88.2L219.65,88.386L220.16,88.573L220.67,88.76L221.18,88.948L221.69,89.136L222.2,89.326L222.71,89.515L223.22,89.706L223.73,89.897L224.24,90.088L224.75,90.28L225.26,90.473L225.77,90.666L226.28,90.86L226.8,91.054L227.31,91.249L227.82,91.445L228.33,91.641L228.84,91.838L229.35,92.035L229.86,92.233L230.37,92.431L230.88,92.63L231.39,92.83L231.9,93.03L232.41,93.231L232.92,93.433L233.43,93.635L233.95,93.837L234.46,94.04L234.97,94.244L235.48,94.448L235.99,94.653L236.5,94.859L237.01,95.065L237.52,95.272L238.03,95.479L238.54,95.687L239.05,95.895L239.56,96.104L240.07,96.314L240.58,96.524L241.1,96.735L241.61,96.946L242.12,97.158L242.63,97.37L243.14,97.584L243.65,97.797L244.16,98.012L244.67,98.226L245.18,98.442L245.69,98.658L246.2,98.875L246.71,99.092L247.22,99.309L247.73,99.528L248.25,99.747L248.76,99.966L249.27,100.19L249.78,100.41L250.29,100.63L250.8,100.85L251.31,101.07L251.82,101.3L252.33,101.52L252.84,101.74L253.35,101.97L253.86,102.19L254.37,102.42L254.88,102.65L255.4,102.87L255.91,103.1L256.42,103.33L256.93,103.56L257.44,103.79L257.95,104.02L258.46,104.25L258.97,104.48L259.48,104.71L259.99,104.94L260.5,105.18L261.01,105.41L261.52,105.64L262.03,105.88L262.55,106.11L263.06,106.35L263.57,106.59L264.08,106.82L264.59,107.06L265.1,107.3L265.61,107.54L266.12,107.78L266.63,108.02L267.14,108.26L267.65,108.5L268.16,108.74L268.67,108.98L269.18,109.23L269.7,109.47L270.21,109.71L270.72,109.96L271.23,110.2L271.74,110.45L272.25,110.7L272.76,110.94L273.27,111.19L273.78,111.44L274.29,111.69L274.8,111.94L275.31,112.19L275.82,112.44L276.33,112.69L276.85,112.94L277.36,113.19L277.87,113.45L278.38,113.7L278.89,113.95L279.4,114.21L279.91,114.46L280.42,114.72L280.93,114.98L281.44,115.23L281.95,115.49L282.46,115.75L282.97,116.01L283.48,116.27L284,116.53L284.51,116.79L285.02,117.05L285.53,117.31L286.04,117.57L286.55,117.83L287.06,118.1L287.57,118.36L288.08,118.63L288.59,118.89L289.1,119.16L289.61,119.42L290.12,119.69L290.63,119.96L291.15,120.23L291.66,120.49L292.17,120.76L292.68,121.03L293.19,121.3L293.7,121.58L294.21,121.85L294.72,122.12L295.23,122.39L295.74,122.67L296.25,122.94L296.76,123.21L297.27,123.49L297.78,123.76L298.29,124.04L298.81,124.32L299.32,124.59L299.83,124.87L300.34,125.15L300.85,125.43L301.36,125.71L301.87,125.99L302.38,126.27L302.89,126.55L303.4,126.84L303.91,127.12L304.42,127.4L304.93,127.68L305.44,127.97L305.96,128.25L306.47,128.54L306.98,128.83L307.49,129.11L308,129.4L308.51,129.69L309.02,129.98L309.53,130.27L310.04,130.56L310.55,130.85L311.06,131.14L311.57,131.43L312.08,131.72L312.59,132.01L313.11,132.31L313.62,132.6L314.13,132.89L314.64,133.19L315.15,133.48L315.66,133.78L316.17,134.08L316.68,134.37L317.19,134.67L317.7,134.97L318.21,135.27L318.72,135.57L319.23,135.87L319.74,136.17L320.26,136.47L320.77,136.77L321.28,137.08L321.79,137.38L322.3,137.68L322.81,137.99L323.32,138.29L323.83,138.6L324.34,138.9L324.85,139.21L325.36,139.52L325.87,139.83L326.38,140.13L326.89,140.44L327.41,140.75L327.92,141.06L328.43,141.37L328.94,141.69L329.45,142L329.96,142.31L330.47,142.62L330.98,142.94L331.49,143.25L332,143.57L332.51,143.88L333.02,144.2L333.53,144.51L334.04,144.83L334.56,145.15L335.07,145.47L335.58,145.79L336.09,146.11L336.6,146.43L337.11,146.75L337.62,147.07L338.13,147.39L338.64,147.71L339.15,148.03L339.66,148.36L340.17,148.68L340.68,149.01L341.19,149.33L341.71,149.66L342.22,149.99L342.73,150.31L343.24,150.64L343.75,150.97L344.26,151.3L344.77,151.63L345.28,151.96L345.79,152.29L346.3,152.62L346.81,152.95L347.32,153.28L347.83,153.62L348.34,153.95L348.86,154.28L349.37,154.62L349.88,154.95L350.39,155.29L350.9,155.63L351.41,155.96L351.92,156.3L352.43,156.64L352.94,156.98L353.45,157.32L353.96,157.66L354.47,158L354.98,158.34L355.49,158.68L356.01,159.02L356.52,159.37L357.03,159.71L357.54,160.05L358.05,160.4L358.56,160.74L359.07,161.09L359.58,161.43L360.09,161.78L360.6,162.13L361.11,162.48L361.62,162.83L362.13,163.18L362.64,163.53L363.16,163.88L363.67,164.23L364.18,164.58L364.69,164.93L365.2,165.28L365.71,165.64L366.22,165.99L366.73,166.35L367.24,166.7L367.75,167.06L368.26,167.41L368.77,167.77L369.28,168.13L369.79,168.49L370.31,168.84L370.82,169.2L371.33,169.56L371.84,169.92L372.35,170.29L372.86,170.65L373.37,171.01L373.88,171.37L374.39,171.74L374.9,172.1L375.41,172.46L375.92,172.83L376.43,173.19L376.94,173.56L377.46,173.93L377.97,174.3L378.48,174.66L378.99,175.03L379.5,175.4L380.01,175.77L380.52,176.14L381.03,176.51L381.54,176.88L382.05,177.26L382.56,177.63L383.07,178L383.58,178.38L384.09,178.75L384.61,179.13L385.12,179.5L385.63,179.88L386.14,180.25L386.65,180.63L387.16,181.01L387.67,181.39L388.18,181.77L388.69,182.15L389.2,182.53L389.71,182.91L390.22,183.29L390.73,183.67L391.24,184.05L391.76,184.44L392.27,184.82L392.78,185.21L393.29,185.59L393.8,185.98L394.31,186.36L394.82,186.75L395.33,187.14L395.84,187.52L396.35,187.91L396.86,188.3L397.37,188.69L397.88,189.08L398.39,189.47L398.91,189.86L399.42,190.26L399.93,190.65L400.44,191.04L400.95,191.44L401.46,191.83L401.97,192.22L402.48,192.62L402.99,193.02L403.5,193.41L404.01,193.81L404.52,194.21L405.03,194.61L405.54,195.01L406.06,195.41L406.57,195.81L407.08,196.21L407.59,196.61L408.1,197.01L408.61,197.41L409.12,197.82L409.63,198.22L410.14,198.62L410.65,199.03L411.16,199.43L411.67,199.84L412.18,200.25L412.69,200.65L413.21,201.06L413.72,201.47L414.23,201.88L414.74,202.29L415.25,202.7L415.76,203.11L416.27,203.52L416.78,203.93L417.29,204.34L417.8,204.76L418.31,205.17L418.82,205.59L419.33,206L419.84,206.42L420.35,206.83L420.87,207.25L421.38,207.67L421.89,208.08L422.4,208.5L422.91,208.92L423.42,209.34L423.93,209.76L424.44,210.18L424.95,210.6L425.46,211.02L425.97,211.45L426.48,211.87L426.99,212.29L427.5,212.72L428.02,213.14L428.53,213.57L429.04,213.99L429.55,214.42L430.06,214.85L430.57,215.27L431.08,215.7L431.59,216.13L432.1,216.56L432.61,216.99L433.12,217.42L433.63,217.85L434.14,218.28L434.65,218.72L435.17,219.15L435.68,219.58L436.19,220.02L436.7,220.45L437.21,220.89L437.72,221.32L438.23,221.76L438.74,222.2L439.25,222.63L439.76,223.07L440.27,223.51L440.78,223.95L441.29,224.39L441.8,224.83L442.32,225.27L442.83,225.71L443.34,226.16L443.85,226.6L444.36,227.04L444.87,227.49L445.38,227.93L445.89,228.38L446.4,228.82L446.91,229.27L447.42,229.72L447.93,230.16L448.44,230.61L448.95,231.06L449.47,231.51L449.98,231.96L450.49,232.41L451,232.86L451.51,233.31L452.02,233.76L452.53,234.22L453.04,234.67L453.55,235.12L454.06,235.58L454.57,236.03L455.08,236.49L455.59,236.95L456.1,237.4L456.62,237.86L457.13,238.32L457.64,238.78L458.15,239.24L458.66,239.7L459.17,240.16L459.68,240.62L460.19,241.08L460.7,241.54L461.21,242L461.72,242.47L462.23,242.93L462.74,243.4L463.25,243.86L463.77,244.33L464.28,244.79L464.79,245.26L465.3,245.73L465.81,246.2L466.32,246.66L466.83,247.13L467.34,247.6L467.85,248.07L468.36,248.54L468.87,249.02L469.38,249.49L469.89,249.96L470.4,250.43L470.92,250.91L471.43,251.38L471.94,251.86L472.45,252.33L472.96,252.81L473.47,253.29L473.98,253.76L474.49,254.24L475,254.72L475.51,255.2L476.02,255.68L476.53,256.16L477.04,256.64L477.55,257.12L478.07,257.6L478.58,258.09L479.09,258.57L479.6,259.05L480.11,259.54L480.62,260.02L481.13,260.51L481.64,260.99L482.15,261.48L482.66,261.97L483.17,262.46L483.68,262.94L484.19,263.43L484.7,263.92L485.22,264.41L485.73,264.9L486.24,265.4L486.75,265.89L487.26,266.38L487.77,266.87L488.28,267.37L488.79,267.86L489.3,268.36L489.81,268.85L490.32,269.35L490.83,269.84L491.34,270.34L491.85,270.84L492.37,271.34L492.88,271.84L493.39,272.34L493.9,272.84L494.41,273.34L494.92,273.84L495.43,274.34L495.94,274.84L496.45,275.35L496.96,275.85L497.47,276.35L497.98,276.86L498.49,277.37L499,277.87L499.52,278.38L500.03,278.88L500.54,279.39L501.05,279.9L501.56,280.41L502.07,280.92L502.58,281.43L503.09,281.94L503.6,282.45L504.11,282.96L504.62,283.48L505.13,283.99L505.64,284.5L506.15,285.02L506.67,285.53L507.18,286.05L507.69,286.56L508.2,287.08L508.71,287.6L509.22,288.11L509.73,288.63L510.24,289.15L510.75,289.67L511.26,290.19L511.77,290.71L512.28,291.23L512.79,291.75L513.3,292.28L513.82,292.8L514.33,293.32L514.84,293.85L515.35,294.37L515.86,294.9L516.37,295.42L516.88,295.95L517.39,296.48L517.9,297L518.41,297.53L518.92,298.06L519.43,298.59L519.94,299.12L520.45,299.65L520.97,300.18L521.48,300.71L521.99,301.25L522.5,301.78L523.01,302.31L523.52,302.85L524.03,303.38L524.54,303.92L525.05,304.45L525.56,304.99L526.07,305.53L526.58,306.06L527.09,306.6L527.6,307.14L528.12,307.68L528.63,308.22L529.14,308.76L529.65,309.3L530.16,309.84L530.67,310.39L531.18,310.93L531.69,311.47L532.2,312.02L532.71,312.56L533.22,313.11L533.73,313.65L534.24,314.2L534.75,314.75L535.27,315.29L535.78,315.84L536.29,316.39L536.8,316.94L537.31,317.49L537.82,318.04L538.33,318.59L538.84,319.14L539.35,319.69L539.86,320.25L540.37,320.8L540.88,321.35L541.39,321.91L541.9,322.46L542.41,323.02L542.93,323.58L543.44,324.13L543.95,324.69L544.46,325.25L544.97,325.81L545.48,326.37L545.99,326.93L546.5,327.49L547.01,328.05L547.52,328.61L548.03,329.17L548.54,329.73L549.05,330.3L549.56,330.86L550.08,331.43L550.59,331.99L551.1,332.56L551.61,333.12L552.12,333.69L552.63,334.26L553.14,334.82L553.65,335.39L554.16,335.96L554.67,336.53L555.18,337.1L555.69,337.67L556.2,338.24L556.71,338.82L557.23,339.39L557.74,339.96L558.25,340.54L558.76,341.11L559.27,341.69L559.78,342.26L560.29,342.84L560.8,343.41L561.31,343.99L561.82,344.57L562.33,345.15L562.84,345.73L563.35,346.31L563.86,346.89L564.38,347.47L564.89,348.05L565.4,348.63L565.91,349.21L566.42,349.8L566.93,350.38" style="fill:none;stroke:#FF0000" />
<path d="M56.729,56.347L56.729,350.38" style="fill:none;stroke:#808080;stroke-width:0.25" />
<path d="M204.93,56.347L204.93,350.38" style="fill:none;stroke:#808080;stroke-width:0.25" />
<path d="M353.14,56.347L353.14,350.38" style="fill:none;stroke:#808080;stroke-width:0.25" />
<path d="M501.35,56.347L501.35,350.38" style="fill:none;stroke:#808080;stroke-width:0.25" />
<path d="M56.729,56.347L566.93,56.347" style="fill:none;stroke:#808080;stroke-width:0.25" />
<path d="M56.729,173.46L566.93,173.46" style="fill:none;stroke:#808080;stroke-width:0.25" />
<path d="M56.729,290.57L566.93,290.57" style="fill:none;stroke:#808080;stroke-width:0.25" />
</g>
</svg>
